<svg xmlns="http://www.w3.org/2000/svg" xml:space="preserve" id="Ebene_1" x="0" y="0" style="enable-background:new 0 0 86.2 33" version="1.1" viewBox="0 0 86.2 33"><style type="text/css">.st0{fill:#ff000f}</style><g><path d="M47 33h2c6-.3 10.2-5 10.2-10.6 0-1.9-.4-3.8-1.3-5.3H47V33zM36 17h10v16H36zM57.3 16c-1-1.4-2.4-2.5-3.9-3.3 1.8-1.3 3-3.4 3-5.7 0-3.9-3.1-7-7-7H47v16h10.3zM36 0h10v16H36zM74 33h2c6-.3 10.2-5 10.2-10.6 0-1.9-.4-3.8-1.3-5.3H74V33zM63 17h10v16H63zM84.3 16c-1-1.4-2.4-2.5-3.9-3.3 1.8-1.3 3-3.4 3-5.7 0-3.9-3.1-7-7-7H74v16h10.3zM63 0h10v16H63zM5.7 17 0 33h8.3l2.4-7H16v-9zM16 0h-4.3L6 16h10zM17 26h5.3l2.4 7H33l-5.7-16H17zM27 16 21.3 0H17v16z" class="st0"/></g></svg>