<svg xmlns="http://www.w3.org/2000/svg" width="82" height="60" version="1.1" viewBox="0 0 82 60"><g id="Page-1" fill="none" fill-rule="evenodd" stroke="none" stroke-width="1"><g id="Homepage-Hi-Fi-Updated-V2" transform="translate(-120 -25)"><g id="Group-9" transform="translate(120 25)"><g id="Group-14"><path id="Fill-1" fill="#5F2266" d="m44.266 32.03 7.978-13.819-2.629-4.553L39.003 32.04a37.027 37.027 0 0 1 5.263-.01"/><path id="Fill-3" fill="#E71E25" d="m51.46 33.226 4.727-8.186-2.629-4.553-6.81 11.797c1.57.214 3.14.528 4.712.942"/><path id="Fill-5" fill="#F26F21" d="m58.013 35.535 2.116-3.666-2.628-4.552-3.794 6.57a45.514 45.514 0 0 1 4.306 1.648"/><path id="Fill-7" fill="#F7BD15" d="m64.072 38.698-2.628-4.552-1.362 2.359c1.33.66 2.659 1.39 3.989 2.193h.001Z"/><path id="Fill-9" fill="#00538E" d="M36.194 32.352 48.3 11.382l-2.628-4.553L30.124 33.76a39.957 39.957 0 0 1 6.07-1.408"/><path id="Fill-11" fill="#009AD7" d="m26.809 34.95 17.55-30.397L41.73 0 19.432 38.62l-.045.078.075-.045a51.666 51.666 0 0 1 7.346-3.702v-.002Z"/><path id="Assured" fill="#020303" fill-rule="nonzero" d="m3.22 59.157 1.486-3.489h6.832l1.466 3.489h2.683L9.33 44.604H6.977L.619 59.157H3.22Zm7.39-5.739H5.635l2.477-5.78 2.498 5.78Zm11.001 5.945c2.271 0 4.046-1.135 4.046-3.427v-.04c0-1.962-1.796-2.684-3.385-3.18-1.28-.412-2.456-.743-2.456-1.527v-.041c0-.64.557-1.094 1.527-1.094.908 0 2.023.392 3.076 1.032l.99-1.775c-1.155-.764-2.642-1.239-4.004-1.239-2.167 0-3.88 1.26-3.88 3.323v.042c0 2.084 1.795 2.745 3.405 3.2 1.28.391 2.436.68 2.436 1.527v.04c0 .723-.62 1.177-1.693 1.177-1.114 0-2.394-.454-3.57-1.341l-1.115 1.692c1.362 1.074 3.075 1.63 4.623 1.63Zm9.908 0c2.27 0 4.046-1.135 4.046-3.427v-.04c0-1.962-1.796-2.684-3.385-3.18-1.28-.412-2.457-.743-2.457-1.527v-.041c0-.64.558-1.094 1.528-1.094.908 0 2.023.392 3.075 1.032l.991-1.775c-1.156-.764-2.642-1.239-4.004-1.239-2.168 0-3.88 1.26-3.88 3.323v.042c0 2.084 1.795 2.745 3.405 3.2 1.28.391 2.436.68 2.436 1.527v.04c0 .723-.62 1.177-1.693 1.177-1.114 0-2.394-.454-3.57-1.341l-1.115 1.692c1.362 1.074 3.075 1.63 4.623 1.63Zm10.342.02c1.692 0 2.704-.887 3.405-1.92v1.694h2.498v-10.9h-2.498v6.152c0 1.693-1.011 2.704-2.456 2.704-1.486 0-2.332-.97-2.332-2.663v-6.192H37.98v6.935c0 2.54 1.424 4.19 3.88 4.19Zm11.538-11.125h-2.498v10.899H53.4v-4.15c0-2.89 1.527-4.313 3.715-4.313h.145v-2.642c-1.888-.082-3.137.995-3.825 2.581l-.035.081v-2.456Zm10.28 11.146c2.002 0 3.426-.805 4.458-2.043l-1.466-1.3c-.867.846-1.734 1.3-2.951 1.3-1.61 0-2.87-.991-3.138-2.766h8.009c.02-.248.041-.475.041-.702 0-3.137-1.754-5.862-5.222-5.862-3.117 0-5.325 2.56-5.325 5.676v.042c0 3.364 2.435 5.655 5.593 5.655Zm2.476-6.46h-5.593c.227-1.693 1.3-2.87 2.827-2.87 1.652 0 2.601 1.26 2.766 2.87Zm9.495 6.44c1.775 0 2.91-.909 3.716-2.044v1.817h2.497V44.088h-2.497v5.863c-.785-1.012-1.92-1.92-3.716-1.92-2.6 0-5.057 2.043-5.057 5.656v.04c0 3.613 2.498 5.657 5.057 5.657Zm.599-2.168c-1.693 0-3.138-1.383-3.138-3.488v-.041c0-2.168 1.425-3.489 3.138-3.489 1.672 0 3.158 1.383 3.158 3.489v.04c0 2.086-1.486 3.49-3.158 3.49Z"/></g></g></g></g></svg>