<svg xmlns="http://www.w3.org/2000/svg" id="Layer_1" data-name="Layer 1" viewBox="0 0 160 40"><defs><style>.cls-1{fill:#ec3b21;fill-rule:evenodd}.cls-2{fill:#bfbfbf}</style></defs><path d="M9.45 15.24a3.13 3.13 0 0 1-3.12-3.11A3.09 3.09 0 0 1 9.38 9a3.13 3.13 0 0 1 3.11 3.12v3.06Zm23.29 13.27h-4a3.06 3.06 0 0 1-3.09 2.87 3.1 3.1 0 0 1-3.12-3.07 3 3 0 0 1 3.09-3h7.09V12.18a7.14 7.14 0 0 0-7.11-7.11 7 7 0 0 0-7.06 7.06 7.22 7.22 0 0 0 .73 3.11h-2.78v-3.11a7.14 7.14 0 0 0-7.13-7.08 7 7 0 0 0-7.06 7.06 7.14 7.14 0 0 0 7.11 7.11h3.11v2h-3.1a7 7 0 0 0-7.06 7.06 7.14 7.14 0 0 0 7.11 7.11 7 7 0 0 0 7.06-6.92h-4a3.07 3.07 0 0 1-3.09 3 3.13 3.13 0 0 1-3.12-3.11 3.08 3.08 0 0 1 3.09-3.1h7.1v-6H25.72v-4h-.12a3.13 3.13 0 0 1-3.12-3.12 3.07 3.07 0 0 1 3.09-3.09 3.13 3.13 0 0 1 3.12 3.11v9.11h-3.06a7 7 0 0 0-7.06 7.06 7.14 7.14 0 0 0 7.11 7.11 7 7 0 0 0 7.06-6.93Z" class="cls-1"/><path d="M40.85 4.33h.87v31.88h-.87z" class="cls-2"/><path d="M49.31 30.58v-20h10.54c3.82 0 5.77 2.43 5.77 5.1a4.45 4.45 0 0 1-3.45 4.6 4.85 4.85 0 0 1 3.83 4.9c0 3-2 5.4-5.83 5.4Zm12-14.18a2.16 2.16 0 0 0-2.35-2.19h-5.38v4.36h5.34a2.14 2.14 0 0 0 2.35-2.17Zm.39 8.18a2.34 2.34 0 0 0-2.59-2.35h-5.53v4.66h5.49c1.63 0 2.59-.89 2.59-2.31ZM80.55 30.58l-3.93-7.12h-3.13v7.12h-4.26v-20h9.37c4.18 0 6.73 2.73 6.73 6.45A5.74 5.74 0 0 1 80.94 23l4.51 7.63ZM81 17a2.72 2.72 0 0 0-3-2.7h-4.51v5.41H78A2.72 2.72 0 0 0 81 17ZM88.55 30.58v-20h4.26v20ZM110.6 30.58 101 17.52v13.06h-4.22v-20h4.38l9.29 12.58V10.55h4.26v20ZM117.72 20.58c0-6.34 4.8-10.36 10.66-10.36a9.36 9.36 0 0 1 8.29 4.47l-3.54 1.92a5.68 5.68 0 0 0-4.75-2.61 6.24 6.24 0 0 0-6.28 6.58 6.25 6.25 0 0 0 6.28 6.58 6.78 6.78 0 0 0 4.27-1.53v-2.41h-5.29V19.5h9.55v7.69a11.11 11.11 0 0 1-8.53 3.81c-5.86 0-10.66-4.11-10.66-10.42ZM139.35 20.58c0-6.34 4.8-10.36 10.66-10.36a9.36 9.36 0 0 1 8.29 4.47l-3.54 1.92A5.68 5.68 0 0 0 150 14a6.24 6.24 0 0 0-6.28 6.58 6.25 6.25 0 0 0 6.28 6.58 6.78 6.78 0 0 0 4.27-1.53v-2.41H149V19.5h9.55v7.69A11.11 11.11 0 0 1 150 31c-5.85 0-10.65-4.11-10.65-10.42Z"/></svg>