<svg xmlns="http://www.w3.org/2000/svg" viewBox="0 0 138.21 95"><g data-name="レイヤー 2"><path fill="#509f3d" d="M22.21 17.1a11.25 11.25 0 0 0-19.94 7.06 11.25 11.25 0 0 0 19.94 7.06L24 32.66a13.54 13.54 0 0 1-24-8.5 13.6 13.6 0 0 1 24-8.6zm48.14 5.42-2.28.92v.72a11.15 11.15 0 0 1-11.15 11.16 11.34 11.34 0 0 1-10.13-6.25l22.73-9.82a13.65 13.65 0 0 0-12.6-8.5 13.41 13.41 0 1 0 13.53 13.41c0-.61-.1-1.13-.1-1.64m-24.69 1.64a11.24 11.24 0 0 1 20.66-6L46 26.92a12.36 12.36 0 0 1-.31-2.76M93 10.75a13.41 13.41 0 1 0 0 26.82 13.7 13.7 0 0 0 11.26-5.94v5.94h2.27V24.16A13.39 13.39 0 0 0 93 10.75m0 24.47A11.11 11.11 0 1 1 93 13a11.11 11.11 0 1 1 0 22.22m-58.19-2.15A2 2 0 0 0 36.88 35a1.82 1.82 0 0 0 .72-.1v2.25a1.82 1.82 0 0 1-.72.1 4.32 4.32 0 0 1-4.34-4.19V0h2.27zm0 41.66a2.06 2.06 0 0 0 2.07 2 1.84 1.84 0 0 0 .72-.21v2.26a1.82 1.82 0 0 1-.72.1 4.26 4.26 0 0 1-4.34-4.2V41.67h2.27zm103.4-52.82a11.21 11.21 0 0 0-22.41 0v15.66h2.27V21.91a8.89 8.89 0 0 1 17.77 0v15.66h2.37zM13.53 52.21A13.45 13.45 0 0 0 0 65.62V95h2.27V73.19A13.74 13.74 0 0 0 13.53 79a13.41 13.41 0 1 0 0-26.82m0 24.57a11.11 11.11 0 1 1 0-22.22 11.11 11.11 0 1 1 0 22.22M53.92 51.9a13.46 13.46 0 1 0 11.26 21v5.93h2.27V65.42A13.47 13.47 0 0 0 53.92 51.9m0 24.57a11.11 11.11 0 1 1 0-22.21 11.11 11.11 0 1 1 0 22.21m41.22-13.31a11.21 11.21 0 0 0-22.42 0v15.67H75V63.16a9 9 0 0 1 9-8.9 8.86 8.86 0 0 1 8.88 8.9v15.67h2.28zm32.12.72-2.27 1v.72a11.07 11.07 0 0 1-11.16 11.06 11.24 11.24 0 0 1-10.12-6.15l22.73-9.82a13.53 13.53 0 0 0-12.61-8.5 13.41 13.41 0 1 0 0 26.82 13.52 13.52 0 0 0 13.54-13.41c0-.61-.11-1.13-.11-1.74m-24.69 1.74a11.24 11.24 0 0 1 20.66-6l-20.35 8.7a11.41 11.41 0 0 1-.31-2.66m32.75-15.89v-8.08h-2.17v8.08h-2.79v2.36h2.79v22.62a4.17 4.17 0 0 0 4.23 4.2 1.62 1.62 0 0 0 .73-.1v-2.26a1.46 1.46 0 0 1-.73.21 2.06 2.06 0 0 1-2.06-2V52.11h2.89v-2.25z" data-name="レイヤー 1"/></g></svg>