<svg xmlns="http://www.w3.org/2000/svg" xml:space="preserve" id="Layer_1" x="0" y="0" style="enable-background:new 0 0 500 126.89" version="1.1" viewBox="0 0 500 126.89"><style type="text/css">.st0{fill:#00ab5d}.st1{fill:#0b6470}</style><g><path d="M478.64 59.78c0 4.76-3.85 8.61-8.61 8.61s-8.61-3.85-8.61-8.61 3.85-8.61 8.61-8.61 8.61 3.85 8.61 8.61" class="st0"/><path d="M457.44 69.63c0 3.21-2.6 5.82-5.82 5.82s-5.82-2.6-5.82-5.82 2.61-5.82 5.82-5.82 5.82 2.6 5.82 5.82M457.44 49.93c0 3.21-2.6 5.82-5.82 5.82s-5.82-2.6-5.82-5.82c0-3.21 2.61-5.82 5.82-5.82s5.82 2.61 5.82 5.82M439.98 79.92a4.03 4.03 0 1 1-4.03-4.03c2.22 0 4.03 1.81 4.03 4.03M439.98 39.63a4.03 4.03 0 1 1-4.03-4.03c2.22.01 4.03 1.81 4.03 4.03M423.41 89.32a2.69 2.69 0 1 1-2.69-2.69c1.49.01 2.69 1.21 2.69 2.69M423.41 29.79a2.69 2.69 0 1 1-5.382-.002 2.69 2.69 0 0 1 5.382.002M441.54 59.78c0 3.09-2.5 5.59-5.59 5.59s-5.59-2.5-5.59-5.59 2.5-5.59 5.59-5.59 5.59 2.5 5.59 5.59M22.75 20.93h33.38v10.15H33.66v15.18h21.89v10.23H33.66v26H22.75zM78.36 38.13h5.37v9.39h-4.36c-3.77 0-5.28 1.51-5.28 5.37V82.5h-10.4V53.14c-.01-10.4 5.19-15.01 14.67-15.01M88.42 60.44c0-13.59 9.73-23.23 22.56-23.23 11.74 0 22.31 7.97 21.3 25.41H98.15c.84 7.05 6.12 11.91 13.67 11.91 5.54 0 10.23-2.6 13.5-7.38l6.88 5.45c-4.36 6.29-11.24 10.9-20.63 10.9-13.84 0-23.15-9.73-23.15-23.06m34.05-5.29c-1.26-6.21-5.7-9.39-11.57-9.39-6.21 0-10.9 3.86-12.41 9.39h23.98zM140.08 60.44c0-13.59 9.73-23.23 22.56-23.23 11.74 0 22.31 7.97 21.3 25.41H149.8c.84 7.05 6.12 11.91 13.67 11.91 5.54 0 10.23-2.6 13.5-7.38l6.88 5.45c-4.36 6.29-11.24 10.9-20.63 10.9-13.83 0-23.14-9.73-23.14-23.06m34.06-5.29c-1.26-6.21-5.7-9.39-11.57-9.39-6.21 0-10.9 3.86-12.41 9.39h23.98zM210.28 37.12c11.49 0 18.45 7.13 18.45 18.96V82.5h-10.4V56.41c0-6.21-2.94-9.56-8.05-9.56-5.2 0-8.05 3.36-8.05 9.56V82.5h-10.4V56.07c0-11.82 6.88-18.95 18.45-18.95M236.28 60.35c0-13.5 10.23-23.23 23.23-23.23s23.23 9.73 23.23 23.23-10.23 23.32-23.23 23.32-23.23-9.81-23.23-23.32m23.23 13.51c7.3 0 12.83-5.54 12.83-13.5s-5.54-13.5-12.83-13.5c-7.3 0-12.83 5.54-12.83 13.5s5.54 13.5 12.83 13.5M307.32 37.12c6.29 0 10.9 2.52 13.42 6.46 2.52-3.94 7.13-6.46 13.5-6.46 10.57 0 17.03 7.04 17.03 18.96V82.5h-10.4V55.82c0-5.62-2.68-8.98-7.3-8.98-4.78 0-7.55 3.36-7.55 9.31v26.34h-10.4V56.16c0-5.96-2.85-9.31-7.55-9.31-4.7 0-7.3 3.36-7.3 8.98V82.5h-10.4V56.07c.01-11.91 6.38-18.95 16.95-18.95M358.81 60.44c0-13.59 9.73-23.23 22.56-23.23 11.74 0 22.31 7.97 21.3 25.41h-34.14c.84 7.05 6.12 11.91 13.67 11.91 5.53 0 10.23-2.6 13.5-7.38l6.88 5.45c-4.36 6.29-11.24 10.9-20.63 10.9-13.83 0-23.14-9.73-23.14-23.06m34.05-5.29c-1.26-6.21-5.7-9.39-11.57-9.39-6.21 0-10.9 3.86-12.41 9.39h23.98z" class="st1"/></g></svg>