<svg width="24" height="24" viewBox="0 0 24 24" fill="none" xmlns="http://www.w3.org/2000/svg">
<path fill-rule="evenodd" clip-rule="evenodd" d="M19 1C17.8954 1 17 1.89543 17 3V21C17 22.1046 17.8954 23 19 23C20.1046 23 21 22.1046 21 21V3C21 1.89543 20.1046 1 19 1ZM10 8.5C10 7.39543 10.8954 6.5 12 6.5C13.1046 6.5 14 7.39543 14 8.5V21C14 22.1046 13.1046 23 12 23C10.8954 23 10 22.1046 10 21V8.5ZM3 14C3 12.8954 3.89543 12 5 12C6.10457 12 7 12.8954 7 14V21C7 22.1046 6.10457 23 5 23C3.89543 23 3 22.1046 3 21V14Z" fill="#146AFF"/>
</svg>
