<svg xmlns="http://www.w3.org/2000/svg" xml:space="preserve" id="Layer_1" x="0" y="0" style="enable-background:new 0 0 212.2 34.4" version="1.1" viewBox="0 0 212.2 34.4"><style type="text/css">.st0{fill:#00a5df}.st1{fill:#002f6c}</style><g id="_Group_"><g id="_Group_2"><g id="_Group_3"><path id="_Path_" d="M29.9 21.3c-3.3 5.9-10 11-13.3 13-4.2-3.2-7.7-7.1-10.5-11.6l.5-9.9c3.1 5.3 6.7 10.4 10.8 15 2.3-1 7.6-3.8 12.5-6.5" class="st0"/><path id="_Path_2" d="M4.5 21.5C1.1 15.7.1 7.3 0 3.5 4.7 1.5 9.7.4 14.8.3l8.3 5.4c-6 0-12 .5-17.9 1.7-.2 2.5-.5 8.6-.7 14.1" class="st1"/><path id="_Path_3" d="M16.9 0c6.7-.2 14.6 2.9 18 4.7-.6 5.1-2.2 10-4.6 14.6l-8.7 4.6c3-5.3 5.4-10.8 7.3-16.6-2.1-1.4-7.3-4.6-12-7.3" class="st1"/></g></g></g><path d="M51.9 19.7v-3.5h9.8v8.9c-2.4 3-6 4.7-9.9 4.6-7 0-12.4-4.8-12.4-12 0-6.6 5.4-12 12-12h.4c3.6 0 7.1 1.6 9.4 4.4l-2.9 2.5c-1.6-2-4-3.2-6.6-3.2-4.4 0-8 3.6-8 8v.4c0 5.1 3.3 8.4 8 8.4 2.1 0 4.2-.8 5.8-2.2v-4.1h-5.6v-.2zM81 20.8c0 4.9-3.9 8.8-8.8 8.8s-8.8-3.9-8.8-8.8 4-8.8 8.8-8.8 8.8 3.9 8.8 8.8zm-8.8-5.4c-2.7 0-4.7 2.4-4.7 5.4s2 5.4 4.8 5.4 4.8-2.4 4.8-5.4-2.1-5.4-4.9-5.4zM94.7 19.7v-3.5h9.8v8.9c-2.4 3-6 4.7-9.9 4.6-7 0-12.4-4.8-12.4-12 0-6.6 5.4-12 12-12h.4c3.6 0 7.1 1.6 9.4 4.4l-2.9 2.5c-1.6-2-4-3.1-6.6-3.2-4.4 0-8 3.6-8 8v.4c0 5.1 3.3 8.4 8 8.4 2.1 0 4.2-.8 5.8-2.2v-4.1h-5.6v-.2zM118.4 29.3l-.2-2.5c-1.2 1.8-3.2 2.9-5.4 2.9-1.8.1-3.6-.8-4.7-2.2-1.2-1.7-1.5-3.9-1.5-6.4v-8.9h4v8.6c-.1 1.4.1 2.8.7 4.1.5.9 1.5 1.4 2.6 1.3 1.8-.1 3.3-1.1 4.2-2.6V12.3h4v17.1h-3.7v-.1zM134.9 29.3l-.2-1.6c-1.2 1.4-3 2.1-4.8 2-3.2 0-6.1-1.8-6.1-5.3 0-4.2 3.9-5.6 7.5-5.6 1.1 0 2.2.1 3.2.4v-.4c0-2.3-1-3.7-3.6-3.7-1.8.1-3.6.6-5.3 1.5l-1.1-3c2.2-1.1 4.6-1.7 7.1-1.7 4.8 0 6.9 2.7 6.9 7.1v10.3h-3.6zm-.5-7.5c-.9-.2-1.7-.3-2.6-.3-1.9 0-4.2.6-4.2 2.8 0 1.7 1.4 2.5 2.9 2.5 1.5-.1 2.8-.7 3.9-1.7v-3.3zM144.4 14.7c1-1.7 2.4-2.8 4.1-2.8.7 0 1.4.1 2 .3l-.9 3.7c-.5-.3-1.1-.4-1.6-.4-1.5 0-2.9.9-3.5 2.3v11.5h-4v-17h3.7l.2 2.4zM167.2 29.3h-3.7l-.2-2.2a6.15 6.15 0 0 1-5.3 2.6c-4.7 0-8.2-4-8.2-9 0-4.7 3.3-8.9 8.2-8.9 1.9 0 3.8.8 5.1 2.1V4.5h4l.1 24.8zm-4-11.7c-1-1.4-2.6-2.2-4.3-2.1-3.3 0-4.9 2.8-4.9 5.5 0 2.8 1.9 5.4 4.9 5.4 1.8 0 3.5-1 4.4-2.7l-.1-6.1zM169.7 9.5V5.8h4v3.7h-4zm0 19.8v-17h4v17h-4zM186.8 29.3l-.2-1.6c-1.2 1.4-3 2.1-4.8 2-3.2 0-6.1-1.8-6.1-5.3 0-4.2 3.9-5.6 7.5-5.6 1.1 0 2.2.1 3.2.4v-.4c0-2.3-1-3.7-3.6-3.7-1.8.1-3.6.6-5.3 1.5l-1.1-3c2.2-1.1 4.6-1.7 7.1-1.7 4.8 0 6.9 2.7 6.9 7.1v10.3h-3.6zm-.4-7.5c-.9-.2-1.7-.3-2.6-.3-1.9 0-4.2.6-4.2 2.8 0 1.7 1.4 2.5 2.9 2.5 1.5-.1 2.8-.7 3.9-1.7v-3.3zM196.2 12.3l.2 2.5c1.2-1.8 3.2-2.9 5.4-2.9 1.8-.1 3.6.8 4.7 2.2 1.3 1.6 1.5 3.9 1.5 6.4v8.9h-4v-8.6c.1-1.4-.1-2.8-.7-4.1-.5-.9-1.5-1.4-2.6-1.3-1.8.1-3.4 1.1-4.2 2.6v11.3h-4v-17h3.7z" class="st1"/><g><g><path d="M210.1 11.8c-1.2 0-2.1-.9-2.1-2.1s.9-2.1 2.1-2.1 2.1.9 2.1 2.1-1 2.1-2.1 2.1zm0-3.9c-1 0-1.8.8-1.8 1.8s.8 1.8 1.8 1.8 1.8-.8 1.8-1.8-.8-1.8-1.8-1.8z" class="st1"/></g><path d="M210.4 9.8c.1-.1.2-.1.3-.3.1-.1.1-.3.1-.4 0-.2-.1-.4-.2-.5-.2-.1-.4-.2-.6-.2h-.6v2.5h.3v-1h.5l.6 1h.3l-.7-1.1zm-.4-.1h-.3v-1h.3c.4 0 .6.2.6.5 0 .1 0 .3-.1.4-.2.1-.4.1-.5.1z" class="st1"/></g></svg>