<svg xmlns="http://www.w3.org/2000/svg" width="334" height="334" fill="none" version="1.1" viewBox="0 0 334 334"><path fill="#14245f" d="M1.123 184.74a.315.315 0 1 0 0-.63.315.315 0 0 0 0 .63zm9.03-6.221a.561.561 0 1 0 .001-1.122.561.561 0 0 0 0 1.122zm6.279-5.363a.894.894 0 1 0 0-1.788.894.894 0 0 0 0 1.788zm7.839-5.047a1.122 1.122 0 1 0 0-2.244 1.122 1.122 0 0 0 0 2.244zm7.171-4.452a1.385 1.385 0 1 0 0-2.77 1.385 1.385 0 0 0 0 2.77zm8.7-3.295a2.226 2.226 0 1 0-2.228-2.225c0 1.229.997 2.225 2.227 2.225zm292.74-10.462a.316.316 0 1 0 0-.632.316.316 0 0 0 0 .632zm-9.014 6.713a.56.56 0 1 0 0-1.122.56.56 0 0 0 0 1.122zm-6.296 6.028a.895.895 0 1 0 .001-1.789.895.895 0 0 0 0 1.789zm-7.82 5.486a1.122 1.122 0 1 0 .001-2.243 1.122 1.122 0 0 0 0 2.243zm-7.174 4.994a1.385 1.385 0 1 0 .002-2.77 1.385 1.385 0 0 0-.002 2.77zm-8.697 4.977a2.226 2.226 0 1 0 .002-4.452 2.226 2.226 0 0 0-.002 4.452zM.321 173.139a.315.315 0 1 0 0-.63.315.315 0 0 0 0 .63zm9.454-5.59a.562.562 0 1 0-.001-1.123.562.562 0 0 0 0 1.123zm6.663-4.89a.894.894 0 1 0 0-1.788.894.894 0 0 0 0 1.788zm8.189-4.487a1.122 1.122 0 1 0 .001-2.243 1.122 1.122 0 0 0-.001 2.243zm7.47-3.96a1.385 1.385 0 1 0 0-2.77 1.385 1.385 0 0 0 0 2.77zm8.961-2.664a2.227 2.227 0 1 0 .001-4.454 2.227 2.227 0 0 0 0 4.454zm292.63 9.954a.315.315 0 1 0 0-.63.315.315 0 0 0 0 .63zm-9.452 6.064a.56.56 0 1 0 0-1.122.56.56 0 0 0 0 1.122zm-6.665 5.573a.895.895 0 1 0 .001-1.789.895.895 0 0 0 0 1.789zm-8.172 4.942a1.122 1.122 0 1 0 .001-2.243 1.122 1.122 0 0 0 0 2.243zm-7.488 4.486a1.385 1.385 0 1 0 .003-2.77 1.385 1.385 0 0 0-.003 2.77zm-8.96 4.347a2.227 2.227 0 1 0 0-4.453 2.227 2.227 0 0 0 0 4.453zM.32 161.502a.315.315 0 1 0 0-.63.315.315 0 0 0 0 .63zm9.838-4.907a.561.561 0 1 0 0-1.122.561.561 0 0 0 0 1.122zm7.013-4.434a.894.894 0 1 0 0-1.788.894.894 0 0 0 0 1.788zm8.488-3.891a1.122 1.122 0 1 0 .001-2.244 1.122 1.122 0 0 0 0 2.244zm7.75-3.417a1.385 1.385 0 1 0 .001-2.77 1.385 1.385 0 0 0 0 2.77zm9.19-2.051a2.226 2.226 0 1 0-2.227-2.225c0 1.229.997 2.225 2.227 2.225zm291.09 30.337a.315.315 0 1 0 0-.63.315.315 0 0 0 0 .63zm-9.839 5.397a.562.562 0 1 0 .001-1.123.562.562 0 0 0 0 1.123zm-6.997 5.083a.894.894 0 1 0 .001-1.787.894.894 0 0 0 0 1.787zm-8.505 4.364a1.123 1.123 0 1 0-.001-2.246 1.123 1.123 0 0 0 .001 2.246zm-7.752 3.943a1.385 1.385 0 1 0 .002-2.77 1.385 1.385 0 0 0-.002 2.77zm-9.188 3.733a2.227 2.227 0 1 0 .003-4.453 2.227 2.227 0 0 0-.003 4.453zM1.13 149.9a.315.315 0 1 0 .001-.63.315.315 0 0 0 0 .63zm10.171-4.206a.56.56 0 1 0 0-1.122.56.56 0 0 0 0 1.122zm7.33-3.926a.894.894 0 1 0 0-1.788.894.894 0 0 0 0 1.788zm8.769-3.312a1.122 1.122 0 1 0 0-2.244 1.122 1.122 0 0 0 0 2.244zm7.996-2.875a1.384 1.384 0 1 0 .002-2.769 1.384 1.384 0 0 0-.002 2.769zm9.365-1.384a2.227 2.227 0 1 0 0-4.454 2.227 2.227 0 0 0 0 4.454zm288.12 50.543a.316.316 0 1 0 0-.632.316.316 0 0 0 0 .632zm-10.17 4.698a.56.56 0 1 0 0-1.122.56.56 0 0 0 0 1.122zm-7.331 4.591a.895.895 0 1 0 0-1.789.895.895 0 0 0 0 1.789zm-8.75 3.768a1.122 1.122 0 1 0 .002-2.243 1.122 1.122 0 0 0-.001 2.243zm-7.997 3.383a1.385 1.385 0 1 0 0-2.77 1.385 1.385 0 0 0 0 2.77zm-9.382 3.084a2.227 2.227 0 1 0 0-4.453 2.227 2.227 0 0 0 0 4.453zM2.76 138.369a.316.316 0 1 0-.001-.632.316.316 0 0 0 0 .632zm10.45-3.488a.561.561 0 1 0 .001-1.122.561.561 0 0 0 0 1.122zm7.612-3.4a.894.894 0 1 0 .001-1.788.894.894 0 0 0 0 1.788zM29.8 128.8a1.122 1.122 0 1 0 .001-2.244 1.122 1.122 0 0 0 0 2.244zm8.207-2.314a1.385 1.385 0 1 0 .001-2.77 1.385 1.385 0 0 0 0 2.77zm9.487-.736a2.227 2.227 0 1 0 0-4.454 2.227 2.227 0 0 0 0 4.454zm283.78 70.505a.315.315 0 1 0 .002-.63.315.315 0 0 0-.002.63zm-10.47 3.995a.56.56 0 1 0 .002-1.121.56.56 0 0 0-.001 1.121zm-7.592 4.067a.894.894 0 1 0 0-1.787.894.894 0 0 0 0 1.787zm-8.996 3.137a1.123 1.123 0 1 0 0-2.246 1.123 1.123 0 0 0 0 2.246zm-8.191 2.821a1.384 1.384 0 1 0 .002-2.768 1.384 1.384 0 0 0-.002 2.768zm-9.503 2.419a2.227 2.227 0 1 0 0-4.453 2.227 2.227 0 0 0 0 4.453zM5.182 126.995a.315.315 0 1 0 0-.63.315.315 0 0 0 0 .63zm10.682-2.752a.561.561 0 1 0 0-1.122.561.561 0 0 0 0 1.122zm7.856-2.874a.894.894 0 1 0 0-1.788.894.894 0 0 0 0 1.788zm9.171-2.033a1.123 1.123 0 1 0 0-2.245 1.123 1.123 0 0 0 0 2.245zm8.346-1.736a1.384 1.384 0 1 0 .002-2.769 1.384 1.384 0 0 0-.002 2.769zm9.595-.07a2.226 2.226 0 1 0-2.227-2.225c0 1.229.997 2.225 2.227 2.225zm278.02 90.117a.316.316 0 1 0 0-.63.316.316 0 0 0 0 .63zm-10.697 3.242a.561.561 0 1 0-.001-1.123.561.561 0 0 0 0 1.123zm-7.856 3.523a.895.895 0 1 0 0-1.789.895.895 0 0 0 0 1.789zm-9.172 2.505a1.121 1.121 0 1 0 .001-2.243 1.121 1.121 0 0 0-.001 2.243zm-8.346 2.261a1.385 1.385 0 1 0 0-2.77 1.385 1.385 0 0 0 0 2.77zm-9.593 1.753a2.227 2.227 0 1 0 0-4.453 2.227 2.227 0 0 0 0 4.453zm-274.8-105.12a.316.316 0 1 0 0-.631.316.316 0 0 0 0 .631zm10.872-1.998a.561.561 0 1 0 0-1.122.561.561 0 0 0 0 1.122zm8.048-2.313a.894.894 0 1 0 .001-1.788.894.894 0 0 0 0 1.788zm9.312-1.402a1.122 1.122 0 1 0 .001-2.243 1.122 1.122 0 0 0 0 2.243zm8.47-1.139a1.385 1.385 0 1 0 0-2.77 1.385 1.385 0 0 0 0 2.77zm9.627.596a2.227 2.227 0 1 0 0-4.454 2.227 2.227 0 0 0 0 4.454zm270.92 109.27a.316.316 0 1 0 0-.632.316.316 0 0 0 0 .632zm-10.891 2.488a.56.56 0 1 0 0-1.121.56.56 0 0 0 0 1.121zm-8.05 2.98a.895.895 0 1 0 0-1.79.895.895 0 0 0 0 1.79zm-9.292 1.858a1.122 1.122 0 1 0 0-2.245 1.122 1.122 0 0 0 0 2.245zm-8.49 1.665a1.386 1.386 0 1 0 0-2.771 1.386 1.386 0 0 0 0 2.771zm-9.608 1.085a2.226 2.226 0 1 0 .002-4.452 2.226 2.226 0 0 0-.002 4.452zm-266.94-124.03a.315.315 0 1 0 0-.63.315.315 0 0 0 0 .63zm10.996-1.226a.562.562 0 1 0-.001-1.123.562.562 0 0 0 0 1.123zm8.223-1.753a.894.894 0 1 0 0-1.788.894.894 0 0 0 0 1.788zm9.4-.753a1.123 1.123 0 1 0 0-2.245 1.123 1.123 0 0 0 0 2.245zm8.541-.544a1.385 1.385 0 1 0 .002-2.77 1.385 1.385 0 0 0-.002 2.77zm9.627 1.279a2.227 2.227 0 1 0 .001-4.454 2.227 2.227 0 0 0 0 4.454zm262.5 127.88a.315.315 0 1 0 0-.63.315.315 0 0 0 0 .63zm-11.013 1.718a.56.56 0 1 0 .001-1.121.56.56 0 0 0 0 1.121zm-8.225 2.419a.894.894 0 1 0 .001-1.787.894.894 0 0 0 0 1.787zm-9.38 1.209a1.122 1.122 0 1 0 0-2.243 1.122 1.122 0 0 0 0 2.243zm-8.559 1.069a1.385 1.385 0 1 0 0-2.77 1.385 1.385 0 0 0 0 2.77zm-9.627.403a2.227 2.227 0 1 0 0-4.453 2.227 2.227 0 0 0 0 4.453zM17.1 94.252a.316.316 0 1 0 0-.631.316.316 0 0 0 0 .631zm11.083-.473a.56.56 0 1 0 0-1.122.56.56 0 0 0 0 1.122zm8.33-1.157a.894.894 0 1 0 0-1.788.894.894 0 0 0 0 1.788zm9.454-.105a1.122 1.122 0 1 0 0-2.244 1.122 1.122 0 0 0 0 2.244zm8.573.052a1.385 1.385 0 1 0 .001-2.77 1.385 1.385 0 0 0 0 2.77zm9.575 1.946a2.226 2.226 0 1 0 .002-4.453 2.226 2.226 0 0 0-.002 4.453zm252.81 145.86a.316.316 0 1 0 0-.63.316.316 0 0 0 0 .63zm-11.082.964a.561.561 0 1 0 0-1.123.561.561 0 0 0 0 1.123zm-8.348 1.822a.894.894 0 1 0 .001-1.788.894.894 0 0 0 0 1.788zm-9.453.56a1.121 1.121 0 1 0 .002-2.242 1.121 1.121 0 0 0-.002 2.243zm-8.574.457a1.385 1.385 0 1 0 0-2.77 1.385 1.385 0 0 0 0 2.77zm-9.575-.245a2.227 2.227 0 1 0 .001-4.454 2.227 2.227 0 0 0 0 4.454zM22.552 83.963a.316.316 0 1 0 0-.632.316.316 0 0 0 0 .632zm11.12.315a.561.561 0 1 0 0-1.122.561.561 0 0 0 0 1.122zm8.418-.578a.894.894 0 1 0 0-1.789.894.894 0 0 0 0 1.789zm9.452.56a1.122 1.122 0 1 0 .001-2.243 1.122 1.122 0 0 0 0 2.244zm8.574.649a1.385 1.385 0 1 0 0-2.77 1.385 1.385 0 0 0 0 2.77zm9.471 2.612a2.226 2.226 0 1 0 .001-4.453 2.226 2.226 0 0 0-.001 4.453zm241.86 163.13a.315.315 0 1 0 0-.63.315.315 0 0 0 0 .63zm-11.101.193a.562.562 0 1 0 0-1.124.562.562 0 0 0 0 1.124zm-8.434 1.244a.894.894 0 1 0 0-1.788.894.894 0 0 0 0 1.788zm-9.435-.105a1.122 1.122 0 1 0 .001-2.245 1.122 1.122 0 0 0-.001 2.245zm-8.576-.14a1.385 1.385 0 1 0 0-2.77 1.385 1.385 0 0 0 0 2.77zm-9.47-.911a2.227 2.227 0 1 0 0-4.454 2.227 2.227 0 0 0 0 4.454zM28.721 74.102a.316.316 0 1 0 0-.632.316.316 0 0 0 0 .632zm11.082 1.085a.561.561 0 1 0 0-1.122.561.561 0 0 0 0 1.122zm8.47.018a.894.894 0 1 0 0-1.788.894.894 0 0 0 0 1.788zm9.382 1.227a1.122 1.122 0 1 0 0-2.244 1.122 1.122 0 0 0 0 2.244zm8.541 1.244a1.385 1.385 0 1 0 .001-2.77 1.385 1.385 0 0 0 0 2.77zm9.31 3.26a2.226 2.226 0 1 0 .002-4.453 2.226 2.226 0 0 0-.001 4.453zm229.76 179.58a.316.316 0 1 0-.316-.316c0 .174.143.316.317.316zm-11.065-.58a.56.56 0 1 0 0-1.12.56.56 0 0 0 0 1.12zm-8.47.65a.893.893 0 1 0 0-1.787.893.893 0 0 0 0 1.787zm-9.4-.771a1.122 1.122 0 1 0 0-2.245 1.122 1.122 0 0 0 0 2.245zm-8.54-.72a1.385 1.385 0 1 0 .002-2.77 1.385 1.385 0 0 0-.002 2.77zm-9.312-1.576a2.227 2.227 0 1 0 .003-4.449 2.227 2.227 0 0 0-.003 4.449zM35.559 64.689a.316.316 0 1 0 0-.632.316.316 0 0 0 0 .632zm10.996 1.858a.561.561 0 1 0 0-1.122.561.561 0 0 0 0 1.122zm8.469.596a.894.894 0 1 0 0-1.788.894.894 0 0 0 0 1.788zm9.312 1.875a1.122 1.122 0 1 0 0-2.244 1.122 1.122 0 0 0 0 2.244zm8.435 1.857a1.385 1.385 0 1 0 .001-2.77 1.385 1.385 0 0 0 0 2.77zm9.118 3.891a2.226 2.226 0 1 0 .002-4.453 2.226 2.226 0 0 0-.002 4.453zm216.54 195.16a.316.316 0 1 0-.001-.631.316.316 0 0 0 .001.631zm-10.996-1.349a.561.561 0 1 0 0-1.123.561.561 0 0 0 0 1.123zm-8.47.052a.893.893 0 1 0 .002-1.787.893.893 0 0 0-.002 1.787zm-9.295-1.419a1.122 1.122 0 1 0 0-2.244 1.122 1.122 0 0 0 0 2.244zm-8.452-1.315a1.385 1.385 0 1 0 0-2.77 1.385 1.385 0 0 0 0 2.77zm-9.12-2.225a2.227 2.227 0 1 0 .001-4.453 2.227 2.227 0 0 0 0 4.453zM43.046 55.78a.316.316 0 1 0 0-.63.316.316 0 0 0 0 .63zM53.9 58.392a.561.561 0 1 0 0-1.122.561.561 0 0 0 0 1.122zm8.435 1.192a.894.894 0 1 0 0-1.788.894.894 0 0 0 0 1.788zm9.154 2.523a1.122 1.122 0 1 0 .001-2.243 1.122 1.122 0 0 0 0 2.243zm8.313 2.419a1.385 1.385 0 1 0 .001-2.77 1.385 1.385 0 0 0 0 2.77zm8.891 4.539a2.226 2.226 0 1 0 .002-4.453 2.226 2.226 0 0 0-.002 4.453zm202.25 209.78a.316.316 0 1 0 0-.632.316.316 0 0 0 0 .632zm-10.838-2.12a.56.56 0 1 0 0-1.122.56.56 0 0 0 0 1.122zm-8.434-.526a.894.894 0 1 0 .001-1.788.894.894 0 0 0 0 1.788zm-9.172-2.068a1.122 1.122 0 1 0 .001-2.243 1.122 1.122 0 0 0 0 2.243zm-8.312-1.893a1.385 1.385 0 1 0 0-2.77 1.385 1.385 0 0 0 0 2.77zm-8.892-2.856a2.227 2.227 0 1 0 .001-4.454 2.227 2.227 0 0 0 0 4.454zM51.135 47.402a.316.316 0 1 0 0-.631.316.316 0 0 0 0 .63zm10.662 3.365a.561.561 0 1 0 0-1.122.561.561 0 0 0 0 1.122zm8.348 1.787a.894.894 0 1 0 0-1.788.894.894 0 0 0 0 1.788zm8.997 3.154a1.122 1.122 0 1 0 0-2.244 1.122 1.122 0 0 0 0 2.244zm8.137 2.997a1.385 1.385 0 1 0 0-2.77 1.385 1.385 0 0 0 0 2.77zm8.61 5.135a2.226 2.226 0 1 0 .001-4.453 2.226 2.226 0 0 0-.001 4.453zm186.97 223.36a.316.316 0 1 0 0-.632.316.316 0 0 0 0 .632zm-10.662-2.874a.561.561 0 1 0-.001-1.123.561.561 0 0 0 0 1.123zm-8.348-1.104a.894.894 0 1 0 0-1.787.894.894 0 0 0 0 1.787zm-8.978-2.7a1.122 1.122 0 1 0 0-2.242 1.122 1.122 0 0 0 0 2.243zm-8.138-2.47a1.385 1.385 0 1 0 .002-2.77 1.385 1.385 0 0 0-.002 2.77zm-8.61-3.47a2.227 2.227 0 1 0 0-4.454 2.227 2.227 0 0 0 0 4.454zM59.773 39.622a.315.315 0 1 0 0-.631.315.315 0 0 0 0 .63zm10.417 4.101a.561.561 0 1 0 0-1.122.561.561 0 0 0 0 1.122zm8.242 2.366a.894.894 0 1 0 .001-1.788.894.894 0 0 0 0 1.788zm8.75 3.768a1.122 1.122 0 1 0 0-2.244 1.122 1.122 0 0 0 0 2.244zm7.928 3.558a1.385 1.385 0 1 0 0-2.77 1.385 1.385 0 0 0 0 2.77zm8.295 5.73a2.226 2.226 0 1 0 .001-4.452 2.226 2.226 0 0 0-.001 4.452zm170.8 235.86a.315.315 0 1 0 0-.63.315.315 0 0 0 0 .63zm-10.417-3.61a.562.562 0 1 0 0-1.123.562.562 0 0 0 0 1.123zm-8.224-1.7a.895.895 0 1 0 0-1.79.895.895 0 0 0 0 1.79zm-8.77-3.312a1.122 1.122 0 1 0 .002-2.243 1.122 1.122 0 0 0-.001 2.243zm-7.924-3.032a1.385 1.385 0 1 0 0-2.77 1.385 1.385 0 0 0 0 2.77zm-8.295-4.049c1.23 0 2.228-.997 2.228-2.226a2.228 2.228 0 0 0-4.455 0c0 1.23.997 2.226 2.227 2.226zM68.955 32.452a.316.316 0 1 0 0-.631.316.316 0 0 0 0 .631zm10.119 4.82a.56.56 0 1 0 0-1.121.56.56 0 0 0 0 1.121zm8.066 2.926a.894.894 0 1 0 0-1.788.894.894 0 0 0 0 1.788zm8.487 4.382a1.122 1.122 0 1 0 0-2.244 1.122 1.122 0 0 0 0 2.244zm7.681 4.101a1.386 1.386 0 1 0 .001-2.77 1.386 1.386 0 0 0 0 2.77zm7.927 6.31a2.226 2.226 0 1 0 .002-4.453 2.226 2.226 0 0 0-.002 4.452zm153.8 247.16a.315.315 0 1 0 0-.63.315.315 0 0 0 0 .63zm-10.119-4.312a.56.56 0 1 0 0-1.121.56.56 0 0 0 0 1.121zm-8.085-2.26a.893.893 0 1 0 .001-1.788.893.893 0 0 0 0 1.787zm-8.486-3.926a1.122 1.122 0 1 0 .001-2.243 1.122 1.122 0 0 0 0 2.243zm-7.664-3.575a1.385 1.385 0 1 0 0-2.77 1.385 1.385 0 0 0 0 2.77zm-7.944-4.628a2.226 2.226 0 1 0 0-4.45c-1.23 0-2.228.995-2.228 2.225s.998 2.225 2.228 2.225zM78.607 25.95a.316.316 0 1 0 0-.63.316.316 0 0 0 0 .63zm9.784 5.521a.561.561 0 1 0 0-1.122.561.561 0 0 0 0 1.122zm7.859 3.47a.894.894 0 1 0 0-1.788.894.894 0 0 0 0 1.788zm8.188 4.96a1.122 1.122 0 1 0 0-2.243 1.122 1.122 0 0 0 0 2.243zm7.384 4.627a1.385 1.385 0 1 0 0-2.77 1.385 1.385 0 0 0 0 2.77zm7.523 6.852a2.226 2.226 0 1 0-2.228-2.226c0 1.23.998 2.226 2.228 2.226zm136.03 257.29a.316.316 0 1 0 0-.632.316.316 0 0 0 0 .632zm-9.77-5.03a.562.562 0 1 0 .002-1.123.562.562 0 0 0-.001 1.123zm-7.872-2.822a.895.895 0 1 0 0-1.79.895.895 0 0 0 0 1.79zm-8.172-4.486a1.122 1.122 0 1 0 0-2.245 1.122 1.122 0 0 0 0 2.245zm-7.401-4.118a1.385 1.385 0 1 0 .002-2.77 1.385 1.385 0 0 0-.002 2.77zm-7.522-5.153a2.226 2.226 0 1 0 0-4.451 2.227 2.227 0 1 0 0 4.45zM88.688 20.13a.316.316 0 1 0 0-.631.316.316 0 0 0 0 .63zm9.381 6.186a.561.561 0 1 0 0-1.122.561.561 0 0 0 0 1.122zm7.63 4.013a.895.895 0 1 0 0-1.789.895.895 0 0 0 0 1.79zm7.838 5.521a1.122 1.122 0 1 0 0-2.243 1.122 1.122 0 0 0 0 2.243zm7.067 5.135a1.385 1.385 0 1 0 0-2.77 1.385 1.385 0 0 0 0 2.77zm7.085 7.36a2.226 2.226 0 1 0 .001-4.452 2.226 2.226 0 0 0-.001 4.453zm117.6 266.14a.316.316 0 1 0 0-.631.316.316 0 0 0 0 .632zm-9.381-5.694a.56.56 0 1 0 0-1.122.56.56 0 0 0 0 1.122zm-7.63-3.365a.894.894 0 1 0 .001-1.788.894.894 0 0 0 0 1.788zm-7.821-5.048a1.121 1.121 0 1 0 .001-2.243 1.121 1.121 0 0 0-.001 2.243zm-7.066-4.61a1.385 1.385 0 1 0 0-2.769 1.385 1.385 0 0 0 0 2.77zm-7.102-5.677a2.227 2.227 0 1 0 0-4.454 2.227 2.227 0 0 0 0 4.454zM99.159 15.032a.316.316 0 1 0 0-.632.316.316 0 0 0 0 .632zm8.944 6.816a.56.56 0 1 0 0-1.121.56.56 0 0 0 0 1.121zm7.347 4.558a.895.895 0 1 0 0-1.79.895.895 0 0 0 0 1.79zm7.435 6.046a1.122 1.122 0 1 0 .001-2.245 1.122 1.122 0 0 0-.001 2.245zm6.717 5.608a1.385 1.385 0 1 0 0-2.77 1.385 1.385 0 0 0 0 2.77zm6.629 7.833a2.226 2.226 0 1 0 .001-4.452 2.226 2.226 0 0 0-.001 4.452zm98.607 273.7a.316.316 0 1 0 0-.63.316.316 0 0 0 0 .63zm-8.961-6.345a.562.562 0 1 0 0-1.12.562.562 0 0 0 0 1.12zm-7.348-3.874a.893.893 0 1 0 .001-1.787.893.893 0 0 0-.001 1.787zm-7.435-5.59a1.122 1.122 0 1 0 0-2.243 1.122 1.122 0 0 0 0 2.243zm-6.716-5.082a1.386 1.386 0 1 0 0-2.77 1.386 1.386 0 0 0 0 2.77zm-6.611-6.15a2.227 2.227 0 1 0 0-4.454 2.227 2.227 0 0 0 0 4.453zm-87.823-281.88a.315.315 0 1 0 0-.631.315.315 0 0 0 0 .63zm8.471 7.43a.56.56 0 1 0 0-1.121.56.56 0 0 0 0 1.121zm7.049 5.047a.895.895 0 1 0 0-1.789.895.895 0 0 0 0 1.79zm7.014 6.555a1.122 1.122 0 1 0 0-2.244 1.122 1.122 0 0 0 0 2.244zm6.312 6.081a1.385 1.385 0 1 0 0-2.77 1.385 1.385 0 0 0 0 2.77zm6.122 8.273c1.23 0 2.228-.997 2.228-2.226a2.227 2.227 0 0 0-4.455 0c0 1.23.997 2.226 2.227 2.226zm79.123 279.88a.316.316 0 1 0 0-.63.316.316 0 0 0 0 .63zm-8.47-6.94a.561.561 0 1 0 0-1.123.561.561 0 0 0 0 1.123zm-7.031-4.382a.894.894 0 1 0 0-1.789.894.894 0 0 0 0 1.789zm-7.015-6.082a1.121 1.121 0 1 0 .001-2.243 1.121 1.121 0 0 0-.001 2.243zm-6.331-5.555a1.384 1.384 0 1 0 0-2.77 1.385 1.385 0 1 0 0 2.77zm-6.12-6.59a2.226 2.226 0 1 0 .002-4.453 2.226 2.226 0 0 0-.002 4.453zM121.009 7.079a.315.315 0 1 0 0-.63.315.315 0 0 0 0 .63zm7.963 8.009a.56.56 0 1 0 0-1.122.56.56 0 0 0 0 1.122zm6.68 5.52a.894.894 0 1 0 0-1.787.894.894 0 0 0 0 1.788zm6.559 7.028a1.122 1.122 0 1 0 0-2.243 1.122 1.122 0 0 0 0 2.243zm5.909 6.502a1.385 1.385 0 1 0 0-2.77 1.385 1.385 0 0 0 0 2.77zm5.578 8.676a2.226 2.226 0 1 0 .001-4.453 2.226 2.226 0 0 0-.001 4.453zm59.272 284.72a.316.316 0 1 0-.002-.632.316.316 0 0 0 .002.632zm-7.943-7.501a.56.56 0 1 0 0-1.122.56.56 0 0 0 0 1.122zm-6.699-4.872a.893.893 0 1 0 .001-1.787.893.893 0 0 0-.001 1.787zm-6.56-6.554a1.122 1.122 0 1 0 0-2.244 1.122 1.122 0 0 0 0 2.244zm-5.892-5.977a1.385 1.385 0 1 0 .002-2.77 1.385 1.385 0 0 0-.002 2.77zm-5.593-7.01a2.226 2.226 0 1 0 0-4.451 2.227 2.227 0 1 0 0 4.45zM132.32 4.28a.315.315 0 1 0 .001-.631.315.315 0 0 0-.001.63zm7.384 8.535a.562.562 0 1 0 0-1.123.562.562 0 0 0 0 1.123zm6.312 5.976a.894.894 0 1 0 0-1.787.894.894 0 0 0 0 1.787zm6.068 7.465a1.122 1.122 0 1 0 .001-2.245 1.122 1.122 0 0 0-.001 2.245zm5.453 6.888a1.385 1.385 0 1 0 0-2.77 1.385 1.385 0 0 0 0 2.77zm5.017 9.061a2.226 2.226 0 1 0-2.228-2.225c0 1.229.998 2.225 2.228 2.225zm39.124 288.15a.315.315 0 1 0 0-.63.315.315 0 0 0 0 .63zm-7.384-8.043a.56.56 0 1 0 0-1.121.56.56 0 0 0 0 1.121zm-6.331-5.31a.895.895 0 1 0 .001-1.79.895.895 0 0 0-.001 1.79zm-6.066-7.01a1.123 1.123 0 1 0-.002-2.245 1.123 1.123 0 0 0 .002 2.245zm-5.438-6.38a1.386 1.386 0 1 0 0-2.77 1.386 1.386 0 0 0 0 2.77zm-5.032-7.36a2.227 2.227 0 1 0 0-4.453 2.227 2.227 0 0 0 0 4.453zM143.772 2.242a.315.315 0 1 0 .001-.63.315.315 0 0 0-.001.63zm6.786 9.043a.561.561 0 1 0 0-1.123.561.561 0 0 0 0 1.123zm5.91 6.398a.895.895 0 1 0 0-1.79.895.895 0 0 0 0 1.79zm5.559 7.868a1.122 1.122 0 1 0 .001-2.244 1.122 1.122 0 0 0-.001 2.244zm4.962 7.273a1.386 1.386 0 1 0 .001-2.771 1.386 1.386 0 0 0-.001 2.771zm4.438 9.377a2.226 2.226 0 1 0 .001-4.453 2.226 2.226 0 0 0-.001 4.453zm3.823 9.463a2.787 2.787 0 1 0-2.788-2.786 2.787 2.787 0 0 0 2.788 2.786zm-16.537 236.19a2.787 2.787 0 1 0 0-5.573 2.787 2.787 0 1 0 0 5.573zm31.495 44.515a.316.316 0 1 0 0-.63.316.316 0 0 0 0 .63zm-6.787-8.535a.56.56 0 1 0 0-1.121.56.56 0 0 0 0 1.121zm-5.91-5.748a.895.895 0 1 0 .001-1.789.895.895 0 0 0-.001 1.79zm-5.54-7.413a1.122 1.122 0 1 0 0-2.243 1.122 1.122 0 0 0 0 2.243zm-4.982-6.73a1.386 1.386 0 1 0 0-2.771 1.386 1.386 0 0 0 0 2.771zm-4.435-7.693a2.227 2.227 0 1 0 0-4.453 2.227 2.227 0 0 0 0 4.453zM155.363 1.03a.315.315 0 1 0 .001-.63.315.315 0 0 0-.001.63zm6.156 9.482a.56.56 0 1 0 0-1.122.56.56 0 0 0 0 1.122zm5.472 6.8a.894.894 0 1 0 0-1.788.894.894 0 0 0 0 1.787zm4.996 8.237a1.122 1.122 0 1 0 .001-2.245 1.122 1.122 0 0 0-.001 2.245zm4.472 7.588a1.386 1.386 0 1 0 0-2.771 1.386 1.386 0 0 0 0 2.771zm3.824 9.674a2.226 2.226 0 1 0-2.228-2.225c0 1.229.998 2.225 2.228 2.225zm3.191 9.71a2.787 2.787 0 1 0 .002-5.575 2.787 2.787 0 0 0-.002 5.574zm-32.985 234.47a2.787 2.787 0 1 0 0-5.574 2.787 2.787 0 1 0 0 5.573zm28.146 46.6a.315.315 0 1 0 .001-.63.315.315 0 0 0-.001.63zm-6.155-8.99a.56.56 0 1 0 0-1.121.56.56 0 0 0 0 1.121zm-5.473-6.152a.894.894 0 1 0 0-1.787.894.894 0 0 0 0 1.787zm-4.997-7.78a1.122 1.122 0 1 0 0-2.244 1.122 1.122 0 0 0 0 2.243zm-4.49-7.064a1.385 1.385 0 1 0 .002-2.77 1.385 1.385 0 0 0-.002 2.77zm-3.822-7.992a2.226 2.226 0 1 0 .002-4.452 2.226 2.226 0 0 0-.002 4.452zM166.989.623a.315.315 0 1 0 .001-.63.315.315 0 0 0-.001.63zm5.507 9.885a.56.56 0 1 0 0-1.122.56.56 0 0 0 0 1.122zm4.999 7.168a.895.895 0 1 0 0-1.79.895.895 0 0 0 0 1.79zm4.435 8.57a1.122 1.122 0 1 0 .001-2.246 1.122 1.122 0 0 0-.001 2.245zm3.946 7.886a1.386 1.386 0 1 0 0-2.771 1.386 1.386 0 0 0 0 2.77zm3.192 9.92a2.226 2.226 0 1 0 .001-4.453 2.226 2.226 0 0 0-.001 4.452zm2.542 9.9c1.54 0 2.789-1.247 2.789-2.786a2.788 2.788 0 0 0-5.577 0 2.787 2.787 0 0 0 2.788 2.787zm-49.258 231.6a2.787 2.787 0 1 0 .001-5.574 2.787 2.787 0 0 0-.001 5.575zm24.637 48.44a.315.315 0 1 0 .001-.63.315.315 0 0 0-.001.63zm-5.487-9.392a.56.56 0 1 0 0-1.122.56.56 0 0 0 0 1.122zm-5.017-6.52a.894.894 0 1 0 0-1.788.894.894 0 0 0 0 1.788zm-4.419-8.096a1.122 1.122 0 1 0 0-2.245 1.122 1.122 0 0 0 0 2.245zm-3.946-7.362a1.384 1.384 0 1 0 .002-2.768 1.384 1.384 0 0 0-.002 2.768zm-3.208-8.237a2.227 2.227 0 1 0 .003-4.449 2.227 2.227 0 0 0-.003 4.449zm33.704-293.36a.315.315 0 1 0 0-.63.315.315 0 0 0 0 .63zm4.823 10.252a.56.56 0 1 0 0-1.122.56.56 0 0 0 0 1.122zm4.507 7.502a.894.894 0 1 0 0-1.788.894.894 0 0 0 0 1.788zm3.84 8.85a1.122 1.122 0 1 0 0-2.244 1.122 1.122 0 0 0 0 2.243zm3.42 8.149a1.385 1.385 0 1 0 .002-2.77 1.385 1.385 0 0 0-.002 2.77zm2.561 10.112a2.226 2.226 0 1 0 .001-4.453 2.226 2.226 0 0 0-.001 4.453zm1.876 10.059a2.787 2.787 0 1 0 0-5.573c-1.54 0-2.789 1.247-2.789 2.786s1.249 2.787 2.789 2.787zm-65.307 227.6a2.787 2.787 0 1 0-2.788-2.786 2.787 2.787 0 0 0 2.788 2.786zm21.027 50.036a.315.315 0 1 0 .001-.631.315.315 0 0 0-.001.63zm-4.822-9.762a.562.562 0 1 0 0-1.124.562.562 0 0 0 0 1.124zm-4.507-6.835a.895.895 0 1 0 .001-1.79.895.895 0 0 0-.001 1.79zm-3.841-8.394a1.122 1.122 0 1 0 0-2.244 1.122 1.122 0 0 0 0 2.244zm-3.403-7.624a1.384 1.384 0 1 0 .002-2.769 1.384 1.384 0 0 0-.002 2.769zm-2.559-8.43a2.227 2.227 0 1 0 0-4.453 2.227 2.227 0 0 0 0 4.454zM190.208 2.23a.316.316 0 1 0 0-.632.316.316 0 0 0 0 .633zm4.104 10.569a.56.56 0 1 0 0-1.122.56.56 0 0 0 0 1.122zm3.998 7.798a.894.894 0 1 0 0-1.788.894.894 0 0 0 0 1.788zm3.227 9.113a1.122 1.122 0 1 0 0-2.243 1.122 1.122 0 0 0 0 2.243zm2.841 8.343a1.386 1.386 0 1 0 0-2.772 1.386 1.386 0 0 0 0 2.772zm1.912 10.287a2.226 2.226 0 1 0 .001-4.453 2.226 2.226 0 0 0-.001 4.453zm1.208 10.165a2.788 2.788 0 0 0 2.789-2.787 2.788 2.788 0 0 0-5.577 0 2.787 2.787 0 0 0 2.788 2.787zm-81.017 222.49a2.787 2.787 0 1 0 .001-5.575 2.787 2.787 0 0 0-.001 5.575zm17.308 51.385a.316.316 0 1 0-.002-.632.316.316 0 0 0 .002.632zm-4.103-10.077a.562.562 0 1 0 0-1.124.562.562 0 0 0 0 1.124zm-4.016-7.133a.894.894 0 1 0 0-1.789.894.894 0 0 0 0 1.789zm-3.209-8.658a1.122 1.122 0 1 0 .001-2.245 1.122 1.122 0 0 0-.001 2.245zm-2.859-7.816a1.385 1.385 0 1 0 0-2.77 1.385 1.385 0 0 0 0 2.77zm-1.911-8.605a2.227 2.227 0 1 0 0-4.454 2.227 2.227 0 0 0 0 4.454zM201.66 4.27a.315.315 0 1 0 0-.63.315.315 0 0 0 0 .63zm3.384 10.813a.56.56 0 1 0 0-1.122.56.56 0 0 0 0 1.122zm3.473 8.061a.895.895 0 1 0 0-1.789.895.895 0 0 0 0 1.79zm2.594 9.307a1.122 1.122 0 1 0 .001-2.245 1.122 1.122 0 0 0-.001 2.245zm2.281 8.535a1.385 1.385 0 1 0 0-2.77 1.385 1.385 0 0 0 0 2.77zm1.245 10.392a2.226 2.226 0 1 0-2.228-2.226c0 1.23.998 2.226 2.228 2.226zm.525 10.235a2.787 2.787 0 1 0 0-5.573c-1.54 0-2.789 1.247-2.789 2.786s1.249 2.787 2.789 2.787zm-96.345 216.28a2.787 2.787 0 1 0-2.788-2.786 2.787 2.787 0 0 0 2.788 2.786zm13.503 52.453a.315.315 0 1 0 .002-.63.315.315 0 0 0-.002.63zm-3.366-10.322a.56.56 0 1 0 0-1.122.56.56 0 0 0 0 1.122zm-3.472-7.395a.894.894 0 1 0 0-1.788.894.894 0 0 0 0 1.788zm-2.615-8.851a1.122 1.122 0 1 0 .001-2.245 1.122 1.122 0 0 0-.001 2.245zm-2.279-8.01a1.385 1.385 0 1 0 0-2.769 1.385 1.385 0 0 0 0 2.77zm-1.244-8.71a2.226 2.226 0 1 0 0-4.45 2.227 2.227 0 1 0 0 4.45zM212.97 7.07a.315.315 0 1 0 0-.63.315.315 0 0 0 0 .63zm2.613 11.042a.562.562 0 1 0 0-1.124.562.562 0 0 0 0 1.124zm2.93 8.271a.894.894 0 1 0 0-1.787.894.894 0 0 0 0 1.787zm1.963 9.464a1.122 1.122 0 1 0 0-2.243 1.122 1.122 0 0 0 0 2.243zm1.683 8.693a1.385 1.385 0 1 0 .002-2.77 1.385 1.385 0 0 0-.002 2.77zm.58 10.445a2.226 2.226 0 1 0-2.228-2.226c0 1.23.998 2.226 2.228 2.226zm-.14 10.235a2.787 2.787 0 1 0 0-5.573 2.788 2.788 0 0 0-2.789 2.786 2.788 2.788 0 0 0 2.789 2.787zm-111.22 209.06a2.787 2.787 0 1 0 0-5.573 2.787 2.787 0 1 0 0 5.573zm9.644 53.26a.316.316 0 1 0 0-.632.316.316 0 0 0 0 .632zm-2.631-10.55a.562.562 0 1 0 0-1.12.562.562 0 0 0 0 1.12zm-2.928-7.625a.893.893 0 1 0 .001-1.787.893.893 0 0 0-.001 1.787zm-1.946-9.008a1.121 1.121 0 1 0 .001-2.243 1.121 1.121 0 0 0-.001 2.243zm-1.7-8.148a1.385 1.385 0 1 0 0-2.77 1.385 1.385 0 0 0 0 2.77zm-.579-8.764a2.226 2.226 0 1 0-2.227-2.225c0 1.229.997 2.225 2.227 2.225zm112.79-272.78a.316.316 0 1 0 0-.632.316.316 0 0 0 0 .632zm1.86 11.199a.562.562 0 1 0 0-1.123.562.562 0 0 0 0 1.123zm2.367 8.465a.895.895 0 1 0 0-1.79.895.895 0 0 0 0 1.79zm1.316 9.586a1.122 1.122 0 1 0 0-2.243 1.122 1.122 0 0 0 0 2.243zm1.105 8.763a1.385 1.385 0 1 0 0-2.77 1.385 1.385 0 0 0 0 2.77zm-.105 10.462a2.227 2.227 0 1 0 .003-4.45 2.227 2.227 0 0 0-.003 4.45zm-.807 10.218a2.787 2.787 0 1 0 .002-5.574 2.787 2.787 0 0 0-.002 5.574zm-125.54 200.79a2.787 2.787 0 1 0 .001-5.575 2.787 2.787 0 0 0-.001 5.575zm5.718 53.803a.316.316 0 1 0-.002-.632.316.316 0 0 0 .002.632zm-1.859-10.708a.562.562 0 1 0 0-1.12.562.562 0 0 0 0 1.12zm-2.367-7.799a.894.894 0 1 0 0-1.787.894.894 0 0 0 0 1.787zm-1.297-9.13a1.122 1.122 0 1 0 0-2.244 1.122 1.122 0 0 0 0 2.243zm-1.106-8.237a1.386 1.386 0 1 0 0-2.771 1.386 1.386 0 0 0 0 2.771zm.089-8.78a2.227 2.227 0 1 0 0-4.454 2.227 2.227 0 0 0 0 4.453zm131.43-264.27a.316.316 0 1 0 0-.633.316.316 0 0 0 0 .632zm1.087 11.285a.56.56 0 1 0 0-1.122.56.56 0 0 0 0 1.122zm1.789 8.622a.895.895 0 1 0 0-1.789.895.895 0 0 0 0 1.79zm.649 9.64a1.122 1.122 0 1 0 .001-2.246 1.122 1.122 0 0 0-.001 2.245zm.51 8.833a1.385 1.385 0 1 0 0-2.77 1.385 1.385 0 0 0 0 2.77zm-.755 10.445a2.226 2.226 0 1 0-2.228-2.226c0 1.23.998 2.226 2.228 2.226zm-1.491 10.13a2.787 2.787 0 1 0 .002-5.575 2.787 2.787 0 0 0-.002 5.575zM97.362 265.52a2.787 2.787 0 1 0 0-5.575 2.787 2.787 0 0 0 0 5.575zm1.789 54.067a.316.316 0 1 0-.001-.633.316.316 0 0 0 0 .633zm-1.105-10.796a.561.561 0 1 0 0-1.122.561.561 0 0 0 0 1.122zm-1.789-7.957a.894.894 0 1 0 0-1.788.894.894 0 0 0 0 1.788zm-.65-9.183a1.122 1.122 0 1 0 .001-2.244 1.122 1.122 0 0 0 0 2.244zm-.506-8.307a1.385 1.385 0 1 0 0-2.77 1.385 1.385 0 0 0 0 2.77zm.77-8.763a2.227 2.227 0 1 0 0-4.454 2.227 2.227 0 0 0 0 4.454zm149.41-254.45a.316.316 0 1 0 0-.633.316.316 0 0 0 0 .633zm.334 11.339a.56.56 0 1 0 0-1.122.56.56 0 0 0 0 1.122zm1.192 8.727a.894.894 0 1 0 0-1.787.894.894 0 0 0 0 1.787zm0 9.657a1.122 1.122 0 1 0 0-2.243 1.122 1.122 0 0 0 0 2.243zm-.088 8.85a1.385 1.385 0 1 0 .002-2.77 1.385 1.385 0 0 0-.002 2.77zm-1.438 10.358a2.226 2.226 0 1 0 .001-4.453 2.226 2.226 0 0 0 0 4.453zm-2.157 10.008a2.787 2.787 0 1 0 0-5.573 2.788 2.788 0 0 0-2.789 2.786 2.788 2.788 0 0 0 2.79 2.787zM90.834 260.44a2.787 2.787 0 1 0 0-5.573 2.788 2.788 0 1 0 0 5.573zm-2.156 54.049a.315.315 0 1 0 0-.631.315.315 0 0 0 0 .63zm-.318-10.848a.561.561 0 1 0 0-1.122.561.561 0 0 0 0 1.122zm-1.21-8.062a.894.894 0 1 0 .002-1.788.894.894 0 0 0-.001 1.788zm.002-9.218a1.122 1.122 0 1 0 0-2.244 1.122 1.122 0 0 0 0 2.244zm.087-8.307a1.385 1.385 0 1 0 0-2.77 1.385 1.385 0 0 0 0 2.77zm1.438-8.675a2.227 2.227 0 1 0 0-4.454 2.227 2.227 0 0 0 0 4.454zm166.68-243.43a.316.316 0 1 0 0-.632.316.316 0 0 0 0 .632zm-.456 11.339a.56.56 0 1 0 0-1.122.56.56 0 0 0 0 1.122zm.631 8.78a.895.895 0 1 0 .001-1.79.895.895 0 0 0 0 1.79zm-.667 9.639a1.122 1.122 0 1 0 .001-2.245 1.122 1.122 0 0 0 0 2.245zm-.7 8.833a1.385 1.385 0 1 0 0-2.77 1.385 1.385 0 0 0 0 2.77zm-2.088 10.218a2.226 2.226 0 1 0 .002-4.453 2.226 2.226 0 0 0-.002 4.453zm-2.806 9.832a2.787 2.787 0 1 0 0-5.574 2.788 2.788 0 1 0 0 5.573zM84.691 254.9a2.787 2.787 0 1 0 0-5.573 2.787 2.787 0 1 0 0 5.573zm-6.101 53.768a.316.316 0 1 0 0-.632.316.316 0 0 0 0 .632zm.456-10.85a.56.56 0 1 0 0-1.121.56.56 0 0 0 0 1.122zm-.615-8.113a.894.894 0 1 0 .001-1.788.894.894 0 0 0 0 1.788zm.667-9.183a1.122 1.122 0 1 0 0-2.244 1.122 1.122 0 0 0 0 2.244zm.684-8.307a1.385 1.385 0 1 0 0-2.77 1.385 1.385 0 0 0 0 2.77zm2.086-8.552a2.227 2.227 0 1 0 0-4.454 2.227 2.227 0 0 0 0 4.454zm183.15-231.21a.315.315 0 1 0 0-.631.315.315 0 0 0 0 .63zM263.79 43.74a.56.56 0 1 0 0-1.122.56.56 0 0 0 0 1.122zm.017 8.798a.894.894 0 1 0 0-1.788.894.894 0 0 0 0 1.788zm-1.315 9.586a1.122 1.122 0 1 0 0-2.245 1.122 1.122 0 0 0 0 2.245zm-1.28 8.745a1.385 1.385 0 1 0 .001-2.77 1.385 1.385 0 0 0 0 2.77zm-2.754 10.06a2.227 2.227 0 1 0-2.227-2.226c0 1.229.997 2.225 2.227 2.225zm-3.454 9.62a2.788 2.788 0 0 0 2.789-2.786 2.788 2.788 0 0 0-5.577 0 2.787 2.787 0 0 0 2.788 2.787zM78.954 248.96a2.787 2.787 0 1 0 0-5.573 2.787 2.787 0 1 0 0 5.574zM68.94 302.168a.316.316 0 1 0-.001-.633.316.316 0 0 0 0 .633zm1.227-10.796a.56.56 0 1 0 0-1.122.56.56 0 0 0 0 1.122zm-.035-8.132a.894.894 0 1 0 0-1.788.894.894 0 0 0 0 1.788zm1.316-9.13a1.122 1.122 0 1 0 0-2.244 1.122 1.122 0 0 0 0 2.244zm1.297-8.22a1.385 1.385 0 1 0 0-2.77 1.385 1.385 0 0 0 0 2.77zm2.735-8.377a2.226 2.226 0 1 0 .002-4.453 2.226 2.226 0 0 0-.002 4.453zm198.71-217.89a.315.315 0 1 0 0-.631.315.315 0 0 0 0 .63zm-2 11.164a.56.56 0 1 0 0-1.122.56.56 0 0 0 0 1.122zm-.56 8.78a.894.894 0 1 0 0-1.787.894.894 0 0 0 0 1.787zm-1.964 9.464a1.122 1.122 0 1 0 0-2.244 1.122 1.122 0 0 0 0 2.244zm-1.877 8.64a1.385 1.385 0 1 0 0-2.77 1.385 1.385 0 0 0 0 2.77zm-3.385 9.85a2.226 2.226 0 1 0 .001-4.453 2.226 2.226 0 0 0-.001 4.453zm-4.067 9.358a2.787 2.787 0 1 0 .001-5.574 2.787 2.787 0 0 0-.001 5.574zm-186.69 145.76a2.788 2.788 0 1 0 0-5.576 2.788 2.788 0 0 0 0 5.576zm-13.871 52.366a.316.316 0 1 0 0-.631.316.316 0 0 0 0 .63zm1.98-10.673a.562.562 0 1 0 0-1.124.562.562 0 0 0 0 1.124zm.562-8.114a.894.894 0 1 0 0-1.788.894.894 0 0 0 0 1.788zm1.981-9.008a1.123 1.123 0 1 0 0-2.245 1.123 1.123 0 0 0 0 2.245zm1.878-8.115a1.385 1.385 0 1 0 0-2.77 1.385 1.385 0 0 0 0 2.77zm3.384-8.166a2.227 2.227 0 1 0 .001-4.454 2.227 2.227 0 0 0 0 4.454zm213.28-203.52a.316.316 0 1 0 0-.632.316.316 0 0 0 0 .632zm-2.754 11.006a.56.56 0 1 0 0-1.122.56.56 0 0 0 0 1.122zm-1.139 8.728a.894.894 0 1 0 .001-1.788.894.894 0 0 0 0 1.788zm-2.613 9.306a1.122 1.122 0 1 0 .001-2.243 1.122 1.122 0 0 0 0 2.243zm-2.456 8.482a1.385 1.385 0 1 0 .001-2.77 1.385 1.385 0 0 0 0 2.77zm-4.015 9.586a2.226 2.226 0 1 0 .002-4.452 2.226 2.226 0 0 0-.002 4.452zm-4.666 9.043a2.787 2.787 0 1 0-2.788-2.786 2.787 2.787 0 0 0 2.788 2.786zm-196.41 132.41a2.788 2.788 0 1 0 .002-5.576 2.788 2.788 0 0 0-.002 5.576zm-17.676 51.26a.315.315 0 1 0 .001-.63.315.315 0 0 0 0 .63zm2.754-10.514a.56.56 0 1 0 0-1.122.56.56 0 0 0 0 1.122zm1.157-8.062a.894.894 0 1 0 .001-1.788.894.894 0 0 0 0 1.788zm2.612-8.85a1.122 1.122 0 1 0 .002-2.244 1.122 1.122 0 0 0-.002 2.244zm2.455-7.956a1.385 1.385 0 1 0 0-2.77 1.385 1.385 0 0 0 0 2.77zm4-7.904a2.227 2.227 0 1 0 0-4.454 2.227 2.227 0 0 0 0 4.454zm226.83-188.15a.316.316 0 1 0 0-.633.316.316 0 0 0 0 .633zm-3.49 10.778a.56.56 0 1 0 0-1.122.56.56 0 0 0 0 1.122zm-1.737 8.623a.894.894 0 1 0 0-1.788.894.894 0 0 0 0 1.788zm-3.244 9.095a1.122 1.122 0 1 0 .001-2.245 1.122 1.122 0 0 0 0 2.245zm-3.016 8.307a1.385 1.385 0 1 0 0-2.77 1.385 1.385 0 0 0 0 2.77zm-4.612 9.288a2.227 2.227 0 1 0 0-4.453 2.227 2.227 0 0 0 0 4.453zm-5.245 8.693a2.787 2.787 0 1 0 .001-5.575 2.787 2.787 0 0 0 0 5.575zm-205.18 118.38a2.787 2.787 0 1 0 0-5.573 2.787 2.787 0 1 0 0 5.573zM43.02 278.851a.315.315 0 1 0 0-.63.315.315 0 0 0 0 .63zm3.49-10.287a.561.561 0 1 0 0-1.122.561.561 0 0 0 0 1.122zm1.735-7.957a.894.894 0 1 0 0-1.788.894.894 0 0 0 0 1.788zm3.245-8.639a1.122 1.122 0 1 0 0-2.244 1.122 1.122 0 0 0 0 2.244zm3.016-7.782a1.385 1.385 0 1 0 0-2.77 1.385 1.385 0 0 0 0 2.77zm4.612-7.606a2.227 2.227 0 1 0 0-4.454 2.227 2.227 0 0 0 0 4.454zm239.29-171.89a.315.315 0 1 0 0-.63.315.315 0 0 0 0 .63zm-4.228 10.516a.56.56 0 1 0 0-1.122.56.56 0 0 0 0 1.122zm-2.296 8.482a.894.894 0 1 0 0-1.788.894.894 0 0 0 0 1.788zm-3.859 8.85a1.122 1.122 0 1 0 .001-2.245 1.122 1.122 0 0 0 0 2.245zm-3.577 8.062a1.385 1.385 0 1 0 .001-2.769 1.385 1.385 0 0 0 0 2.77zm-5.173 8.956a2.227 2.227 0 1 0 0-4.453 2.227 2.227 0 0 0 0 4.453zm-5.822 8.324a2.787 2.787 0 1 0 0-5.573 2.787 2.787 0 1 0 0 5.573zM60.522 221.67a2.788 2.788 0 1 0 .001-5.575 2.788 2.788 0 0 0 0 5.575zm-24.99 48.283a.316.316 0 1 0 0-.632.316.316 0 0 0 0 .632zm4.226-10.025a.56.56 0 1 0 .001-1.121.56.56 0 0 0 0 1.121zm2.317-7.817a.894.894 0 1 0 0-1.788.894.894 0 0 0 0 1.788zm3.839-8.394a1.122 1.122 0 1 0 0-2.244 1.122 1.122 0 0 0 0 2.244zm3.578-7.554a1.384 1.384 0 1 0-1.385-1.384c0 .765.62 1.384 1.385 1.384zm5.19-7.256a2.226 2.226 0 1 0 .001-4.452 2.226 2.226 0 0 0-.001 4.452zm250.56-154.8a.316.316 0 1 0 0-.632.316.316 0 0 0 0 .632zm-4.928 10.2a.562.562 0 1 0 0-1.124.562.562 0 0 0 0 1.123zm-2.876 8.306a.894.894 0 1 0 0-1.787.894.894 0 0 0 0 1.787zm-4.436 8.553a1.122 1.122 0 1 0 0-2.244 1.122 1.122 0 0 0 0 2.244zm-4.103 7.8a1.385 1.385 0 1 0 0-2.77 1.385 1.385 0 0 0 0 2.77zm-5.752 8.568a2.226 2.226 0 1 0-2.227-2.225c0 1.23.997 2.225 2.227 2.225zm-6.331 7.887a2.787 2.787 0 1 0 0-5.573 2.787 2.787 0 1 0 0 5.573zm-219.66 88.696a2.787 2.787 0 1 0 0-5.573 2.788 2.788 0 1 0 0 5.573zm-28.46 46.425a.316.316 0 1 0 0-.63.316.316 0 0 0 0 .63zm4.927-9.709a.561.561 0 1 0 0-1.122.561.561 0 0 0 0 1.122zm2.876-7.64a.894.894 0 1 0 .001-1.788.894.894 0 0 0-.001 1.787zm4.435-8.098a1.122 1.122 0 1 0 .001-2.244 1.122 1.122 0 0 0 0 2.244zm4.122-7.272a1.385 1.385 0 1 0 0-2.77 1.385 1.385 0 0 0 0 2.77zm5.736-6.888a2.227 2.227 0 1 0 0-4.453 2.227 2.227 0 0 0 0 4.453zm260.63-136.96a.315.315 0 1 0 0-.63.315.315 0 0 0 0 .63zm-5.61 9.832a.561.561 0 1 0-.002-1.123.561.561 0 0 0 .001 1.123zm-3.422 8.078a.894.894 0 1 0 0-1.787.894.894 0 0 0 0 1.787zm-5.014 8.237a1.122 1.122 0 1 0 .002-2.244 1.122 1.122 0 0 0-.002 2.244zm-4.629 7.483a1.384 1.384 0 1 0 0-2.769 1.386 1.386 0 1 0 0 2.77zm-6.26 8.168a2.227 2.227 0 1 0 0-4.453 2.227 2.227 0 0 0 0 4.453zm-6.84 7.413a2.787 2.787 0 1 0 0-5.575 2.787 2.787 0 0 0 0 5.575zm-225.31 73.17a2.787 2.787 0 1 0 0-5.573 2.787 2.787 0 1 0 0 5.572zm-31.815 44.32a.315.315 0 1 0 0-.63.315.315 0 0 0 0 .63zm5.613-9.34a.561.561 0 1 0 0-1.122.561.561 0 0 0 0 1.122zm3.419-7.414a.894.894 0 1 0 0-1.788.894.894 0 0 0 0 1.788zm5.015-7.78a1.122 1.122 0 1 0 .001-2.245 1.122 1.122 0 0 0 0 2.244zm4.63-6.959a1.385 1.385 0 1 0 0-2.77 1.385 1.385 0 0 0 0 2.77zm6.26-6.484a2.227 2.227 0 1 0 .001-4.453 2.227 2.227 0 0 0 0 4.453zM316.89 94.24a.316.316 0 1 0 0-.632.316.316 0 0 0 0 .632zm-6.278 9.43a.56.56 0 1 0 0-1.122.56.56 0 0 0 0 1.121zm-3.946 7.815a.895.895 0 1 0 .001-1.789.895.895 0 0 0 0 1.79zm-5.559 7.87a1.122 1.122 0 1 0 .002-2.245 1.122 1.122 0 0 0-.002 2.244zm-5.12 7.15a1.385 1.385 0 1 0 0-2.769 1.385 1.385 0 0 0 0 2.77zm-6.769 7.693a2.227 2.227 0 1 0 .001-4.453 2.227 2.227 0 0 0 0 4.453zm-7.297 6.941a2.787 2.787 0 1 0 0-5.573 2.787 2.787 0 1 0 0 5.573zM52.05 198.411a2.788 2.788 0 1 0 .002-5.575 2.788 2.788 0 0 0-.002 5.575zm-34.984 41.973a.316.316 0 1 0 0-.632.316.316 0 0 0 0 .632zm6.26-8.92a.561.561 0 1 0 .001-1.123.561.561 0 0 0 0 1.122zm3.962-7.15a.895.895 0 1 0 0-1.789.895.895 0 0 0 0 1.79zm5.544-7.414a1.122 1.122 0 1 0 .001-2.243 1.122 1.122 0 0 0-.001 2.243zm5.12-6.625a1.384 1.384 0 1 0 .001-2.768 1.384 1.384 0 0 0-.002 2.768zm6.77-6.01a2.227 2.227 0 1 0 0-4.454 2.227 2.227 0 0 0 0 4.453zm276.9-99.388a.315.315 0 1 0 0-.63.315.315 0 0 0 0 .63zm-6.892 8.956a.56.56 0 1 0 0-1.121.56.56 0 0 0 0 1.121zm-4.472 7.536a.895.895 0 1 0 .001-1.789.895.895 0 0 0 0 1.79zm-6.085 7.448a1.122 1.122 0 1 0 .001-2.244 1.122 1.122 0 0 0 0 2.244zm-5.577 6.782a1.385 1.385 0 1 0 0-2.769 1.385 1.385 0 0 0 0 2.77zm-7.225 7.203a2.227 2.227 0 1 0 .003-4.453 2.227 2.227 0 0 0-.003 4.453zm-7.734 6.415a2.787 2.787 0 1 0-2.789-2.787 2.788 2.788 0 0 0 2.79 2.787zm-233.3 41.115a2.787 2.787 0 1 0 0-5.573 2.787 2.787 0 1 0 0 5.573zm-38.002 39.431a.315.315 0 1 0 .001-.63.315.315 0 0 0 0 .63zm6.875-8.464a.561.561 0 1 0 0-1.122.561.561 0 0 0 0 1.122zm4.472-6.87a.894.894 0 1 0 0-1.788.894.894 0 0 0 0 1.788zm6.085-6.993a1.122 1.122 0 1 0 .001-2.243 1.122 1.122 0 0 0-.001 2.243zm5.594-6.256a1.385 1.385 0 1 0 0-2.77 1.385 1.385 0 0 0 0 2.77zm7.207-5.52a2.226 2.226 0 1 0-2.227-2.226c0 1.23.997 2.225 2.227 2.225zm283.04-79.847a.316.316 0 1 0 0-.632.316.316 0 0 0 0 .632zm-7.488 8.448a.56.56 0 1 0 0-1.121.56.56 0 0 0 0 1.121zm-4.963 7.202a.895.895 0 1 0 0-1.789.895.895 0 0 0 0 1.79zm-6.557 7.011a1.122 1.122 0 1 0 0-2.243 1.122 1.122 0 0 0 0 2.243zm-6.035 6.38a1.385 1.385 0 1 0 .002-2.77 1.385 1.385 0 0 0-.002 2.77zm-7.645 6.694a2.227 2.227 0 1 0 0-4.453 2.227 2.227 0 0 0 0 4.453zm-8.12 5.853a2.787 2.787 0 1 0 0-5.573 2.787 2.787 0 1 0 0 5.573zM49.2 182.147a2.787 2.787 0 1 0 0-5.573 2.787 2.787 0 1 0 0 5.573zM8.36 218.828a.316.316 0 1 0 0-.63.316.316 0 0 0 0 .63zm7.47-7.957a.56.56 0 1 0 .001-1.121.56.56 0 0 0 0 1.121zm4.963-6.537a.894.894 0 1 0 0-1.788.894.894 0 0 0 0 1.788zm6.576-6.554a1.123 1.123 0 1 0 0-2.245 1.123 1.123 0 0 0 0 2.245zm6.013-5.854a1.385 1.385 0 1 0 0-2.77 1.385 1.385 0 0 0 0 2.77zm7.647-5.012a2.227 2.227 0 1 0 .001-4.453 2.227 2.227 0 0 0 0 4.453zm287.79-59.919a.316.316 0 1 0 0-.631.316.316 0 0 0 0 .631zm-8.03 7.904a.56.56 0 1 0 0-1.121.56.56 0 0 0 0 1.121zm-5.438 6.851a.894.894 0 1 0 .002-1.788.894.894 0 0 0-.002 1.788zm-7.032 6.538a1.123 1.123 0 1 0-.001-2.245 1.123 1.123 0 0 0 .001 2.245zm-6.436 5.941a1.386 1.386 0 1 0 0-2.771 1.386 1.386 0 0 0 0 2.771zm-8.03 6.133a2.226 2.226 0 1 0-2.228-2.225c0 1.23.997 2.225 2.227 2.225zm-8.472 5.276a2.787 2.787 0 1 0-2.788-2.786 2.787 2.787 0 0 0 2.788 2.786zM48.62 173.91a2.788 2.788 0 1 0 .001-5.575 2.788 2.788 0 0 0 0 5.575zM5.146 207.647a.316.316 0 1 0 0-.632.316.316 0 0 0 0 .632zm8.033-7.414a.56.56 0 1 0 .001-1.121.56.56 0 0 0 0 1.121zm5.419-6.187a.894.894 0 1 0 0-1.787.894.894 0 0 0 0 1.787zm7.032-6.08a1.123 1.123 0 1 0 0-2.245 1.123 1.123 0 0 0 0 2.245zm6.435-5.416a1.385 1.385 0 1 0 .001-2.77 1.385 1.385 0 0 0 0 2.77zm8.05-4.452a2.226 2.226 0 1 0 .002-4.452 2.226 2.226 0 0 0-.002 4.452zm291.12-39.729a.316.316 0 1 0 0-.632.316.316 0 0 0 0 .632zm-8.557 7.342a.56.56 0 1 0 0-1.121.56.56 0 0 0 0 1.121zm-5.874 6.432a.894.894 0 1 0 .001-1.787.894.894 0 0 0 0 1.787zm-7.437 6.046a1.121 1.121 0 1 0 .002-2.242 1.121 1.121 0 0 0-.002 2.242zm-6.822 5.468a1.386 1.386 0 1 0 .001-2.77 1.386 1.386 0 0 0 0 2.77zm-8.399 5.573a2.226 2.226 0 1 0-2.227-2.225c0 1.23.997 2.225 2.227 2.225zm-8.769 4.68a2.787 2.787 0 1 0 0-5.573 2.787 2.787 0 1 0 0 5.573zm-236.76-8.272a2.787 2.787 0 1 0 0-5.573 2.787 2.787 0 1 0 0 5.573zm236.18 16.51a2.787 2.787 0 1 0 0-5.574 2.787 2.787 0 1 0 0 5.573zM49.197 157.4a2.787 2.787 0 1 0 0-5.573 2.787 2.787 0 1 0 0 5.573zm234.46 32.931a2.787 2.787 0 1 0 .001-5.575 2.787 2.787 0 0 0 0 5.575zm-233.32-41.115a2.787 2.787 0 1 0 0-5.573 2.787 2.787 0 1 0 0 5.573zm231.6 49.194a2.787 2.787 0 1 0 0-5.573 2.787 2.787 0 1 0 0 5.573zm-229.89-57.273a2.788 2.788 0 1 0 .002-5.575 2.788 2.788 0 0 0-.002 5.575zm227.61 65.23a2.787 2.787 0 1 0-2.789-2.788 2.788 2.788 0 0 0 2.79 2.787zm-225.33-73.17a2.787 2.787 0 1 0 0-5.573 2.788 2.788 0 1 0 0 5.573zm222.48 80.933a2.787 2.787 0 1 0 0-5.573 2.787 2.787 0 1 0 0 5.573zm-219.65-88.696a2.788 2.788 0 1 0 .002-5.575 2.788 2.788 0 0 0-.002 5.575zm216.3 96.232a2.787 2.787 0 1 0-2.789-2.787 2.788 2.788 0 0 0 2.79 2.787zm-212.95-103.79a2.787 2.787 0 1 0 0-5.573 2.787 2.787 0 1 0 0 5.573zm209.05 111.09a2.787 2.787 0 1 0 .001-5.575 2.787 2.787 0 0 0 0 5.575zm-205.16-118.38a2.787 2.787 0 1 0 0-5.573 2.787 2.787 0 1 0 0 5.573zm200.78 125.38a2.787 2.787 0 1 0 0-5.573 2.787 2.787 0 1 0 0 5.573zm-196.39-132.39a2.788 2.788 0 1 0 .001-5.575 2.788 2.788 0 0 0 0 5.575zm191.53 139.08a2.787 2.787 0 1 0 .001-5.575 2.787 2.787 0 0 0 0 5.575zM73.637 96.897a2.787 2.787 0 1 0 .002-5.575 2.787 2.787 0 0 0-.002 5.575zm181.36 152.09a2.787 2.787 0 1 0 0-5.573 2.787 2.787 0 1 0 0 5.573zM78.947 90.557a2.787 2.787 0 1 0 .002-5.574 2.787 2.787 0 0 0-.002 5.574zm170.32 164.37a2.787 2.787 0 1 0 .001-5.575 2.787 2.787 0 0 0 0 5.575zM84.687 84.617a2.787 2.787 0 1 0-2.788-2.786 2.787 2.787 0 0 0 2.788 2.786zm158.43 175.85a2.787 2.787 0 1 0-2.788-2.786 2.787 2.787 0 0 0 2.788 2.786zM90.847 79.097a2.787 2.787 0 1 0 .002-5.574 2.787 2.787 0 0 0-.002 5.574zm145.76 186.45a2.787 2.787 0 1 0 0-5.573 2.787 2.787 0 1 0 0 5.573zM97.347 73.997a2.787 2.787 0 1 0 .002-5.574 2.787 2.787 0 0 0-.002 5.574zm132.4 196.18a2.787 2.787 0 1 0 .001-5.575 2.787 2.787 0 0 0 0 5.575zm-125.54-200.79a2.787 2.787 0 1 0 0-5.573 2.788 2.788 0 0 0-2.789 2.787 2.788 2.788 0 0 0 2.79 2.786zm118.39 204.91a2.787 2.787 0 1 0-2.789-2.787 2.788 2.788 0 0 0 2.79 2.787zm-111.24-209.04a2.788 2.788 0 0 0 2.79-2.786 2.788 2.788 0 0 0-5.578 0 2.787 2.787 0 0 0 2.788 2.786zm103.8 212.67a2.787 2.787 0 1 0 0-5.573 2.787 2.787 0 1 0 0 5.573zm-96.363-216.3c1.54 0 2.79-1.247 2.79-2.786a2.788 2.788 0 0 0-5.578 0 2.787 2.787 0 0 0 2.788 2.786zm88.7 219.4a2.787 2.787 0 1 0 0-5.573 2.787 2.787 0 1 0 0 5.573zm-81.036-222.48a2.788 2.788 0 1 0 0-5.575 2.788 2.788 0 0 0 0 5.575zm73.161 225.03a2.787 2.787 0 1 0 0-5.573 2.787 2.787 0 1 0 0 5.573zm-65.288-227.58a2.787 2.787 0 1 0 .002-5.574 2.787 2.787 0 0 0-.002 5.574zm57.274 229.58a2.787 2.787 0 1 0 0-5.573 2.787 2.787 0 1 0 0 5.573zm-49.26-231.58a2.788 2.788 0 0 0 2.79-2.786 2.788 2.788 0 0 0-5.578 0 2.787 2.787 0 0 0 2.788 2.786zm41.124 233.02a2.787 2.787 0 1 0-2.788-2.786 2.787 2.787 0 0 0 2.788 2.786zm-32.987-234.46a2.787 2.787 0 1 0 .002-5.574 2.787 2.787 0 0 0-.002 5.574zm24.761 235.33a2.787 2.787 0 1 0 0-5.573 2.787 2.787 0 1 0 0 5.573zm-16.537-236.19a2.787 2.787 0 1 0 .002-5.574 2.787 2.787 0 0 0-.002 5.574zm-100.57 107.22a3.314 3.314 0 1 0-3.314-3.313 3.314 3.314 0 0 0 3.314 3.313zm217.61 22.835a3.313 3.313 0 1 0 0-6.625 3.314 3.314 0 1 0 0 6.625zm-97.399-120.17c1.831 0 3.315-1.483 3.315-3.312s-1.484-3.312-3.315-3.312a3.313 3.313 0 1 0 0 6.624zm-22.849 217.47c1.83 0 3.314-1.483 3.314-3.312s-1.484-3.312-3.314-3.312-3.315 1.483-3.315 3.312 1.484 3.312 3.315 3.312zm-95.574-131.44c1.83 0 3.315-1.483 3.315-3.312s-1.484-3.312-3.315-3.312a3.313 3.313 0 1 0 0 6.624zm214.03 45.444a3.313 3.313 0 1 0-3.315-3.313 3.314 3.314 0 0 0 3.315 3.313zm-84.298-129.69c1.831 0 3.315-1.483 3.315-3.312s-1.484-3.312-3.315-3.312a3.313 3.313 0 1 0 0 6.624zm-45.473 213.9a3.314 3.314 0 1 0 .003-6.627 3.314 3.314 0 0 0-.003 6.627zm-81.298-140.71a3.314 3.314 0 1 0-3.314-3.313 3.314 3.314 0 0 0 3.314 3.313zm208.11 67.56c1.831 0 3.315-1.483 3.315-3.312s-1.484-3.312-3.315-3.312c-1.83 0-3.314 1.483-3.314 3.312s1.484 3.312 3.314 3.312zm-70.269-137.78c1.831 0 3.315-1.483 3.315-3.312s-1.484-3.312-3.315-3.312a3.313 3.313 0 1 0 0 6.624zm-67.586 207.97a3.313 3.313 0 1 0 0-6.624 3.313 3.313 0 1 0 0 6.624zm-66.147-148.44c1.83 0 3.315-1.483 3.315-3.312s-1.484-3.312-3.315-3.312a3.313 3.313 0 1 0 0 6.624zm199.9 88.925a3.313 3.313 0 1 0-3.315-3.313 3.314 3.314 0 0 0 3.315 3.313zm-55.468-144.36a3.313 3.313 0 1 0-3.315-3.312 3.313 3.313 0 0 0 3.315 3.312zm-88.98 199.77a3.313 3.313 0 1 0-3.314-3.312 3.313 3.313 0 0 0 3.314 3.312zm-50.26-154.54a3.313 3.313 0 1 0-3.314-3.313 3.314 3.314 0 0 0 3.314 3.313zm189.5 109.32a3.313 3.313 0 1 0-3.314-3.312 3.313 3.313 0 0 0 3.314 3.312zm-40.052-149.37a3.313 3.313 0 1 0 0-6.625 3.313 3.313 0 1 0 0 6.625zm-109.39 189.4c1.83 0 3.314-1.483 3.314-3.312s-1.484-3.312-3.314-3.312-3.315 1.483-3.315 3.312 1.484 3.312 3.315 3.312zm-33.829-158.94a3.313 3.313 0 1 0-3.314-3.312 3.313 3.313 0 0 0 3.314 3.312zm177.05 128.51a3.313 3.313 0 1 0-3.314-3.312 3.313 3.313 0 0 0 3.314 3.312zm-24.218-152.73a3.313 3.313 0 1 0 0-6.624 3.313 3.313 0 1 0 0 6.624zm-128.61 176.92a3.314 3.314 0 1 0-3.314-3.313 3.314 3.314 0 0 0 3.314 3.313zm-17.01-161.6a3.313 3.313 0 1 0-3.314-3.312 3.313 3.313 0 0 0 3.314 3.312zm162.63 146.3a3.313 3.313 0 1 0-3.315-3.313 3.314 3.314 0 0 0 3.315 3.313zm-8.119-154.42c1.831 0 3.315-1.483 3.315-3.312s-1.484-3.312-3.315-3.312a3.313 3.313 0 1 0 0 6.624zm-146.4 162.51c1.83 0 3.315-1.483 3.315-3.312s-1.484-3.312-3.315-3.312a3.313 3.313 0 1 0 0 6.624zm-.016-162.5a3.313 3.313 0 1 0-3.314-3.312 3.313 3.313 0 0 0 3.314 3.312zm146.43 162.5c1.83 0 3.314-1.483 3.314-3.312s-1.484-3.312-3.314-3.312-3.315 1.483-3.315 3.312 1.484 3.312 3.315 3.312zm8.084-154.43a3.313 3.313 0 1 0-3.315-3.312 3.313 3.313 0 0 0 3.315 3.312zm-162.6 146.34a3.313 3.313 0 1 0-3.314-3.313 3.314 3.314 0 0 0 3.314 3.313zm16.977-161.6a3.313 3.313 0 1 0-3.315-3.312 3.313 3.313 0 0 0 3.315 3.312zm128.63 176.9a3.313 3.313 0 1 0 0-6.625 3.313 3.313 0 1 0 0 6.625zm24.201-152.74a3.313 3.313 0 1 0-3.315-3.313 3.314 3.314 0 0 0 3.315 3.313zm-177.01 128.55a3.313 3.313 0 1 0-3.314-3.312 3.313 3.313 0 0 0 3.314 3.312zm33.793-158.94a3.313 3.313 0 1 0 .002-6.626 3.313 3.313 0 0 0-.002 6.626zm109.43 189.36c1.831 0 3.315-1.483 3.315-3.312s-1.484-3.312-3.315-3.312c-1.83 0-3.314 1.483-3.314 3.312s1.484 3.312 3.314 3.312zm40.036-149.37a3.313 3.313 0 1 0-3.314-3.312 3.313 3.313 0 0 0 3.314 3.312zm-189.48 109.34a3.313 3.313 0 1 0-3.314-3.312 3.313 3.313 0 0 0 3.314 3.312zm50.224-154.54a3.313 3.313 0 1 0-3.315-3.312 3.313 3.313 0 0 0 3.315 3.312zm89.015 199.76a3.313 3.313 0 1 0-3.314-3.312 3.313 3.313 0 0 0 3.314 3.312zm55.433-144.38a3.313 3.313 0 1 0-3.314-3.312 3.313 3.313 0 0 0 3.314 3.312zm-199.88 88.96a3.314 3.314 0 1 0-3.314-3.313 3.314 3.314 0 0 0 3.314 3.313zm55.433-144.34a3.313 3.313 0 1 0-3.315-3.312 3.313 3.313 0 0 0 3.315 3.312zm89.015 199.76a3.313 3.313 0 1 0-3.314-3.312 3.313 3.313 0 0 0 3.314 3.312zm55.433-144.38a3.313 3.313 0 1 0-3.314-3.312 3.313 3.313 0 0 0 3.314 3.312zm-199.88 88.96a3.314 3.314 0 1 0-3.314-3.313 3.314 3.314 0 0 0 3.314 3.313zm66.13-148.44a3.313 3.313 0 1 0-3.315-3.312 3.314 3.314 0 0 0 3.315 3.312zm67.622 207.96a3.313 3.313 0 1 0 0-6.624 3.313 3.313 0 1 0 0 6.624zm70.25-137.79a3.313 3.313 0 1 0 0-6.624 3.313 3.313 0 1 0 0 6.624zm-208.11 67.596c1.83 0 3.315-1.483 3.315-3.312s-1.484-3.312-3.315-3.312a3.313 3.313 0 1 0 0 6.624zm81.282-140.73a3.313 3.313 0 1 0-3.315-3.312 3.313 3.313 0 0 0 3.315 3.312zm45.524 213.88a3.313 3.313 0 1 0-3.315-3.313 3.314 3.314 0 0 0 3.315 3.313zm84.263-129.69c1.83 0 3.314-1.483 3.314-3.312s-1.484-3.312-3.314-3.312-3.315 1.483-3.315 3.312 1.484 3.312 3.315 3.312zm-214.03 45.48a3.314 3.314 0 1 0-3.314-3.314 3.314 3.314 0 0 0 3.314 3.313zm95.556-131.46a3.313 3.313 0 1 0-3.315-3.313 3.314 3.314 0 0 0 3.315 3.312zm22.902 217.47a3.313 3.313 0 1 0 0-6.626 3.314 3.314 0 1 0 0 6.625zm97.364-120.19a3.313 3.313 0 1 0-3.315-3.314 3.314 3.314 0 0 0 3.315 3.313zm-217.61 22.87a3.313 3.313 0 1 0-3.314-3.312 3.313 3.313 0 0 0 3.314 3.312zm108.85 106.42a2.787 2.787 0 1 0 0-5.573 2.787 2.787 0 1 0 0 5.573zm0-236.75c1.54 0 2.79-1.247 2.79-2.786a2.788 2.788 0 0 0-5.578 0 2.787 2.787 0 0 0 2.788 2.786zm-.07 9.57a3.313 3.313 0 1 0-3.315-3.313 3.314 3.314 0 0 0 3.315 3.313zm.017 218.68c1.831 0 3.315-1.483 3.315-3.312s-1.484-3.312-3.315-3.312c-1.83 0-3.314 1.483-3.314 3.312s1.484 3.312 3.314 3.312zM2.715 196.26a.315.315 0 1 0 .001-.63.315.315 0 0 0 0 .63zm8.54-6.852a.56.56 0 1 0 0-1.122.56.56 0 0 0 0 1.122zm5.873-5.766a.894.894 0 1 0 .001-1.788.894.894 0 0 0 0 1.788zm7.455-5.59a1.122 1.122 0 1 0 0-2.244 1.122 1.122 0 0 0 0 2.244zm6.82-4.943a1.384 1.384 0 1 0 .003-2.769 1.384 1.384 0 0 0-.003 2.769zm8.383-3.891a2.226 2.226 0 1 0-2.227-2.225c0 1.229.997 2.225 2.227 2.225zm236.57 1.069c1.83 0 3.314-1.483 3.314-3.312s-1.484-3.312-3.314-3.312-3.315 1.483-3.315 3.312 1.484 3.312 3.315 3.312zm-218.8.018c1.83 0 3.315-1.483 3.315-3.312s-1.484-3.312-3.315-3.312a3.313 3.313 0 1 0 0 6.624zm109.8 9.534c-5.717 0-10.346 4.644-10.346 10.34v14.406h5.611V198.1h9.487v6.485h5.612V190.18c0-5.696-4.647-10.34-10.364-10.34zm4.752 13.127h-9.487v-2.033c0-3.488 1.736-5.503 4.753-5.503 3.016 0 4.752 1.997 4.752 5.503v2.033zm-34.634-12.601h-8.927v24.22h8.927c6.891 0 11.89-5.1 11.89-12.11s-4.999-12.11-11.89-12.11zm0 18.612h-3.315v-13.021h3.315c3.7 0 6.278 2.68 6.278 6.502 0 3.855-2.578 6.519-6.278 6.519zm63.36-48.826v-5.608H184.84v24.238h15.993v-5.608h-10.38v-3.943h10.38v-5.135h-10.38v-3.944zm30.547 15.703.245-.228-2.77-5.24-.404.438c-1.806 1.98-3.823 2.892-6.365 2.892-4.034 0-6.998-2.997-6.998-7.063s3-7.063 7.068-7.063c2.244 0 4.138.807 5.997 2.699l.404.42 2.7-5.152-.245-.227c-2.42-2.244-5.296-3.348-8.82-3.348-7.244 0-12.698 5.433-12.698 12.619 0 7.238 5.437 12.688 12.662 12.688 3.7.035 6.63-1.07 9.224-3.435zm14.118 2.927h5.611v-18.63h7.243v-5.608h-20.079v5.608h7.225zm-34.67 13.547.053-.035c.21-.14.333-.333.333-.561a.779.779 0 0 0-.772-.771h-.912v2.173h.421v-.683h.246c.158 0 .28.052.386.157.175.176.21.439.21.544h.44c0-.526-.317-.754-.405-.824zm-.368-.263h-.49v-.666h.49c.193 0 .333.158.333.333s-.158.333-.333.333zM86.141 144.56H75.584v24.22h5.612v-6.834h4.945c4.805 0 8.698-3.891 8.698-8.693s-3.893-8.693-8.698-8.693zm0 11.777h-4.945v-6.186h4.945a3.09 3.09 0 0 1 3.087 3.084c0 1.7-1.368 3.102-3.087 3.102zm63.482 12.444c0-6.204-3.98-9.01-3.98-9.01 2.49-1.523 3.752-3.784 3.752-6.518 0-4.802-3.893-8.693-8.698-8.693h-10.31v24.22h5.611v-7.413h2.157c5.927 0 5.857 7.414 5.857 7.414zm-8.943-12.444h-4.7v-6.186h4.7a3.09 3.09 0 0 1 3.086 3.084c0 1.7-1.368 3.102-3.086 3.102zm17.87 12.444h5.611v-8.132h10.382v-5.135h-10.382v-5.363h10.382v-5.608H158.55zm32.127 35.804h5.611v-8.745l9.102-15.475h-6.524l-5.383 9.41-5.367-9.41h-6.54l9.101 15.475zm-71.427-41.412h-10.382v-3.943h10.382v-5.135h-10.382v-3.944h10.382v-5.608h-15.993v24.238h15.993zm91.05 16.666a2.21 2.21 0 0 0-2.21 2.208 2.21 2.21 0 0 0 4.42 0 2.2 2.2 0 0 0-2.21-2.208zm0 4.013c-1 0-1.807-.806-1.807-1.805s.807-1.805 1.806-1.805c1 0 1.806.806 1.806 1.805 0 .982-.806 1.805-1.806 1.805z"/></svg>