<svg xmlns="http://www.w3.org/2000/svg" viewBox="0 0 932.2 932.2"><defs><style>.cls-1{fill:#494949}.cls-2{fill:#40c9ff}.cls-3{fill:#9661ba}.cls-4{fill:#ffa233}.cls-5{fill:#ff5a7e}.cls-6{fill:#ffd91d}</style></defs><g id="Layer_2" data-name="Layer 2"><g id="Layer_1-2" data-name="Layer 1"><path d="M932.2 466.1c0-130.23-188.26-345.81-348.57-430.43C541.15 13.22 500.64 0 466.1 0c-41.73 0-92.22 19.31-144.36 50.86-50.78 30.71-103.15 73-150.48 120.4-47.84 47.83-90.59 100.81-121.38 152.14C18.91 374.92 0 424.8 0 466.1c0 164.8 301.3 466.1 466.1 466.1 41.64 0 92-19.26 144.07-50.69 50.89-30.74 103.38-73.16 150.77-120.58 47.73-47.7 90.36-100.51 121.13-151.69 31.1-51.71 50.13-101.73 50.13-143.14Z" class="cls-1"/><path d="M619.09 313.11c-47.28-49.35-98.82-98.77-152.3-142.73C422 133.57 376 100.57 330 74.56c-47.88 29-97.26 68.88-141.89 113.53l278 278Z" class="cls-2"/><path d="M576.92 60.24c-40.06-21.17-78.26-33.63-110.82-33.63-39.35 0-87 18.21-136.12 48 46 26 92.07 59 136.8 95.81Z" class="cls-3"/><path d="M610.94 610.94 466.1 466.1l-278-278c-45.12 45.09-85.42 95-114.46 143.44 92.94 160.92 269.85 321.86 393.72 423Z" class="cls-4"/><path d="M601.94 857.8c-11.24-8-64.39-46-134.59-103.28C343.49 653.4 166.58 492.46 73.64 331.54c-29.2 48.59-47 95.62-47 134.56 0 155.39 284.1 439.49 439.49 439.49 39.23 0 86.76-18.15 135.81-47.79Z" class="cls-5"/><path d="M905.59 466.1c0-122.8-177.51-326.07-328.67-405.86L466.78 170.38c53.48 44 105 93.38 152.3 142.73l-153 153 144.86 144.83-143.58 143.58c70.19 57.26 123.35 95.32 134.59 103.28 48-29 97.48-69 142.16-113.69 45-45 85.2-94.77 114.21-143 29.33-48.8 47.27-95.97 47.27-135.01Z" class="cls-6"/></g></g></svg>