<svg xmlns="http://www.w3.org/2000/svg" xml:space="preserve" id="Logo" width="543.2" height="198.76" x="0" y="0" style="enable-background:new 0 0 543.2 198.76" version="1.1" viewBox="0 0 543.2 198.76"><style type="text/css">.st0{fill:#1d1933}.st1{fill:#ccdb2a}.st2{fill:#e82176}.st3{fill:#00a7e0}.st4{fill:#faa31b}</style><switch><g><g><g><path d="M0 133.13h21.7c0 10.18 5.76 16.21 15.27 16.21 8.04 0 12.59-3.75 12.59-10.32 0-5.76-2.95-8.71-11.39-12.06L21.3 120.4C8.71 115.71 2.28 107 2.28 94.81c0-16.48 13-27.47 33.36-27.47 20.63 0 34.3 11.66 34.3 29.74h-21.7c0-8.71-4.56-13.53-13-13.53-7.1 0-11.25 3.62-11.25 9.25 0 5.23 3.62 8.44 12.86 12.19l15.54 6.16c13 5.09 18.89 13.8 18.89 26.39 0 17.55-13.67 28.94-34.43 28.94C13.8 166.49 0 154.16 0 133.13" class="st0"/></g><path d="M83.05 99.37h19.29v64.44H83.05zM332.43 67.22h19.29v96.59h-19.29zM366.04 99.37h19.29v64.44h-19.29z" class="st0"/><g><path d="M522.97 124.42c-.13-8.57-4.96-13.4-13.67-13.4-8.84 0-14.2 5.49-14.34 13.4h28.01zm19.69 12.73h-47.7c.4 8.44 6.03 13.26 15.14 13.26 6.3 0 10.32-2.01 12.06-6.03h20.1c-2.01 12.73-15.01 21.44-32.16 21.44-21.97 0-35.5-12.73-35.5-34.3 0-21.17 13.8-34.17 34.83-34.17 20.1 0 33.76 12.59 33.76 30.82.01 3.48-.13 5.23-.53 8.98" class="st0"/><path d="m375.68 43.26 11.15-11.15V11.15c0-6.13-5.02-11.15-11.15-11.15-6.13 0-11.15 5.02-11.15 11.15v20.96l11.15 11.15z" class="st1"/><path d="M386.83 54.4v20.96c0 6.13-5.02 11.15-11.15 11.15s-11.15-5.02-11.15-11.15V54.4l11.15-11.15 11.15 11.15z" class="st2"/><path d="M364.53 54.4h-20.96c-6.13 0-11.15-5.02-11.15-11.15 0-6.13 5.02-11.15 11.15-11.15h20.96l11.15 11.15-11.15 11.15z" class="st3"/><path d="m375.68 43.26 11.15 11.15h20.96c6.13 0 11.15-5.02 11.15-11.15 0-6.13-5.02-11.15-11.15-11.15h-20.96l-11.15 11.15z" class="st4"/><path d="M312.31 147.54h-1.94c-4.77-.13-8.33-1.56-8.33-10.66v-21.44h14.6V99.23h-14.6V67.22h-20.5v32.01h-10.18v16.21h10.18v25.72c0 18.53 9.79 21.67 18.67 22.48 1.46.13 2.89.18 4.25.18h13.66v-16.28h-5.81zM238.93 97.49s-9.79-.25-20.9 4.81V67.22h-20.5v96.59h20.5v-33.76c0-9.91 4.29-15.27 12.46-15.27 8.31 0 11.39 4.96 11.39 15.81v33.23h20.63v-39.93c0-17.56-7.9-26.4-23.58-26.4M102.34 76.99c0 5.33-4.32 9.65-9.65 9.65s-9.65-4.32-9.65-9.65 4.32-9.65 9.65-9.65 9.65 4.32 9.65 9.65M441.05 97.61s-5.67-.01-9.05 1.01c-6.17 1.67-11.27 5.65-12.83 6.97l-.55-6.24h-18.96v64.58h20.5v-32.67c0-9.91 4.29-15.27 12.46-15.27 8.31 0 11.39 4.96 11.39 15.81v32.13h20.63V124c-.01-17.55-7.92-26.39-23.59-26.39M148.82 148c-9.06 0-14.97-7.1-14.97-16.88s5.91-16.88 14.97-16.88c9.58 0 15.23 7.5 15.23 16.88 0 9.38-5.65 16.88-15.23 16.88m34.4-48.77h-17.33l-.8 6.83c-8.88-9.87-22.91-8.57-22.91-8.57l.05.03c-17.49.69-28.98 14.78-28.98 33.33 0 19.03 11.29 35.62 30.06 35.62 0 0 10.32.72 19.82-6.19v7.69c0 .9-.05 1.73-.11 2.54-1.87 7.08-8.65 10.75-14.72 10.75-6.84 0-13.25-1.46-15.24-8.75h-19.8c2.56 18.31 17.38 26.26 35.62 26.26 14.31 0 29.47-7.37 33.27-23.99l.01.01.08-.37v-.01c.25-1.16.97-4.8.97-8.15 0-.04-.01-.06-.01-.1 0-.16.02-.3.02-.46V99.23z" class="st0"/></g></g></g></switch></svg>