<svg xmlns="http://www.w3.org/2000/svg" xml:space="preserve" id="Layer_1" x="0" y="0" style="enable-background:new 0 0 256.1 108.2" version="1.1" viewBox="0 0 256.1 108.2"><style type="text/css">.st0{fill:#030d69}.st1{fill:#40e0d1}</style><g><g><g><path d="M146 49.5c.3 0 .5.1.7.3s.3.4.3.7c0 .1 0 .3-.1.5l-10.5 23.1c-.3.6-.8.9-1.4.9-.3 0-.6-.1-.8-.2-.2-.2-.4-.4-.6-.7L123.2 51l-.1-.4c0-.3.1-.6.4-.8.2-.2.5-.3.8-.3.4 0 .7.2.9.6l9.9 22.4 10-22.2c.1-.5.4-.8.9-.8zM170.4 70.4c.2.2.3.4.3.6 0 .3-.1.7-.4 1-.3.3-.7.7-1.4 1.1-2.5 1.5-5 2.2-7.7 2.2-3.7 0-6.7-1.2-8.8-3.5s-3.2-5.5-3.2-9.5c0-2.6.5-4.8 1.4-6.8 1-2 2.3-3.5 4.1-4.6 1.7-1.1 3.8-1.6 6-1.6 3.2 0 5.7 1 7.5 3.1s2.7 4.9 2.7 8.5c0 .6-.1 1.1-.4 1.3s-.7.4-1.3.4h-17.7c0 3.4.9 6 2.5 7.8 1.7 1.8 4 2.7 7 2.7 1.7 0 3-.2 4.1-.7 1.1-.4 2.1-1 3.2-1.7.7-.5 1.2-.7 1.4-.7.3.1.5.2.7.4zm-16-16.5c-1.6 1.6-2.5 3.9-2.8 6.8h17.3c-.1-3-.8-5.3-2.2-6.9-1.4-1.6-3.4-2.4-5.9-2.4-2.7.1-4.8.9-6.4 2.5zM188.2 49.5c.4 0 .7.1.8.2.2.2.2.4.2.7 0 .6-.4.9-1.1 1l-1.5.2c-2.5.2-4.4 1.2-5.7 2.8S179 57.9 179 60v14.1c0 .4-.1.7-.3.9s-.5.3-.8.3-.6-.1-.8-.3c-.2-.2-.3-.5-.3-.9V50.7c0-.8.4-1.2 1.1-1.2.3 0 .6.1.8.3s.3.5.3.9v3.7c1.5-3 4.2-4.6 8-4.8h.7c.1-.1.5-.1.5-.1zM210.2 51c1.7 1.1 3 2.6 3.9 4.5s1.4 4.2 1.4 6.8c0 2.6-.5 4.9-1.4 6.9s-2.2 3.5-3.9 4.6-3.6 1.6-5.8 1.6c-2.1 0-3.9-.5-5.4-1.4s-2.6-2.3-3.4-4v4c0 .8-.4 1.2-1.1 1.2-.3 0-.6-.1-.8-.3-.2-.2-.3-.5-.3-.9V39.6c0-.8.4-1.2 1.1-1.2.3 0 .6.1.8.3s.3.5.3.9v15.2c.8-1.7 1.9-3 3.4-4 1.5-.9 3.3-1.4 5.4-1.4 2.2 0 4.1.6 5.8 1.6zm.6 19.4c1.5-1.9 2.3-4.6 2.3-8.1 0-3.4-.8-6-2.3-7.9s-3.7-2.8-6.5-2.8-4.9.9-6.4 2.8-2.3 4.6-2.3 8c0 3.5.8 6.2 2.3 8 1.5 1.9 3.7 2.8 6.5 2.8 2.7.1 4.9-.9 6.4-2.8zM221.3 42.8c-.4-.3-.6-.8-.6-1.3 0-.6.2-1 .5-1.4.4-.3.8-.5 1.4-.5.5 0 1 .2 1.4.5s.5.8.5 1.4c0 .5-.2 1-.6 1.3-.4.3-.8.5-1.3.5s-1-.1-1.3-.5zm.5 32.2c-.2-.2-.3-.5-.3-.9V50.7c0-.3.1-.6.3-.8s.5-.3.8-.3.6.1.8.3.3.5.3.8v23.4c0 .4-.1.7-.3.9-.2.2-.5.3-.8.3s-.6-.1-.8-.3zM243.5 74.3c0 .8-.5 1.1-1.5 1l-1.3-.1c-2.6-.2-4.5-1-5.7-2.3s-1.8-3.5-1.8-6.5V51.9h-4.3c-.2 0-.4-.1-.6-.3-.2-.2-.3-.4-.3-.6 0-.3.1-.5.3-.7s.4-.3.6-.3h4.3v-6.9c0-.4.1-.7.3-.9s.5-.3.8-.3.6.1.8.3.3.5.3.9V50h6.9c.2 0 .4.1.6.3.2.2.3.4.3.7 0 .2-.1.4-.2.6-.2.2-.4.3-.6.3h-6.9v14.5c0 2.3.5 4 1.4 5s2.3 1.6 4.2 1.7l1.4.1c.6.1 1 .5 1 1.1z" class="st0"/></g></g><g><path d="m12.5 5 61 97 25.7-41L64.3 5z" class="st0"/><path d="m82 5 26.3 42.4L134.4 5z" class="st1"/></g></g></svg>